<svg xmlns="http://www.w3.org/2000/svg" width="76.63" height="113.968" viewBox="0 0 76.63 113.968">
  <defs>
    <style>
      .cls-1 {
        fill-rule: evenodd;
      }
    </style>
  </defs>
  <path id="_0319-doctor" data-name=" 0319-doctor" class="cls-1" d="M3554.55,536.295a0.605,0.605,0,0,0-.07.217,0.48,0.48,0,0,0,.17.068,0.571,0.571,0,0,0,.06-0.212A0.428,0.428,0,0,0,3554.55,536.295Zm43.22-10.977a1.748,1.748,0,0,0-.6.336,0.731,0.731,0,0,0-.13.653,0.769,0.769,0,0,0,.64.159,2.1,2.1,0,0,0,.69-0.323,0.381,0.381,0,0,0-.07-0.628C3598.15,525.443,3597.99,525.4,3597.77,525.318Zm-41.9,15.342a1,1,0,0,0-.38-0.985,1.152,1.152,0,0,0-.63.255,0.432,0.432,0,0,0-.12.21,4.3,4.3,0,0,0-.3,2.907,0.482,0.482,0,0,0,.35.275,0.473,0.473,0,0,0,.39-0.207C3555.44,542.249,3555.67,541.372,3555.87,540.66Zm26.69,9.656c0.54-.025.95-0.038,1.37-0.069a3.844,3.844,0,0,0,.49-0.1,0.584,0.584,0,0,0,.35-0.791c-0.35-.565-0.69-1.139-1.09-1.672-0.28-.379-0.57-0.993-1.14-0.732a2.177,2.177,0,0,0-.95,1.076,5.382,5.382,0,0,0-.33,1.7,0.714,0.714,0,0,0,.43.482A3.532,3.532,0,0,0,3582.56,550.316Zm32.65-1.225c-0.14-.365-0.31-0.927-0.56-1.454a0.906,0.906,0,0,0-1.33-.237,1.083,1.083,0,0,0-.59,1.052,6.335,6.335,0,0,1-.01,3.507,0.308,0.308,0,0,0,.03.247,0.9,0.9,0,0,0,.29.387,0.548,0.548,0,0,0,.47-0.028A4.144,4.144,0,0,0,3615.21,549.091Zm-59.36,2.3,0.08,0c-0.05-.844-0.07-1.692-0.16-2.531a0.833,0.833,0,0,0-.44-0.563,2.117,2.117,0,0,0-2.31.544,3.41,3.41,0,0,0,1.87,5.443,0.782,0.782,0,0,0,.95-0.61C3555.87,552.916,3555.85,552.155,3555.85,551.394Zm9.31,9-0.03-.136c-0.98.229-1.97,0.44-2.94,0.695a0.669,0.669,0,0,0-.43,1c0.09,0.236.2,0.467,0.3,0.7a45.8,45.8,0,0,0,4.45,7.079,12.6,12.6,0,0,0,1.6,1.61,0.254,0.254,0,0,0,.24.034,0.814,0.814,0,0,0,.27-0.38,2.1,2.1,0,0,0-.03-0.75,36.149,36.149,0,0,1-1.03-4.954,33.82,33.82,0,0,0-.86-3.953,1.081,1.081,0,0,0-1.28-.941h-0.26Zm6.6-29.123c-0.13-.587.26-1.541-0.54-2.166-0.63-.491-1.3.066-1.96,0.046-0.17,0-.34.023-0.51,0.029a26.6,26.6,0,0,0-7.45,1.531,1.54,1.54,0,0,0-1.37,1.83c-0.03,1.625.41,2.036,1.94,1.761,0.5-.09.98-0.283,1.48-0.328,2.2-.2,4.39-0.361,6.59-0.535,0.34-.027.68-0.035,1.01-0.077a0.956,0.956,0,0,0,.81-0.853C3571.78,532.176,3571.76,531.835,3571.76,531.276Zm30.94-3.044V528.1c-1.61.056-3.22,0.117-4.84,0.167a1.159,1.159,0,0,0-1.22,1.048c-0.16.745-.36,1.484-0.45,2.236a1.1,1.1,0,0,0,1.14,1.356c2.86,0.363,5.67.957,8.48,1.574,0.5,0.109.99,0.272,1.48,0.364a1.007,1.007,0,0,0,1.28-1.138,14.174,14.174,0,0,0-.5-4.535,1.047,1.047,0,0,0-1.04-.929C3605.59,528.212,3604.14,528.232,3602.7,528.232Zm-27.9,63.027a1.824,1.824,0,0,0-1.49.994,1.428,1.428,0,0,0,.64,1.3c0.69,0.625,1.46,1.166,2.13,1.815,2.86,2.786,5.74,5.557,8.53,8.417,1.52,1.558,1.37,1.108,3.05.518a4.707,4.707,0,0,0,1.25-.866c2.73-2.155,5.6-4.125,8.4-6.184,1.64-1.2,3.16-2.573,4.72-3.879a3.2,3.2,0,0,0,1.18-1.916,1.275,1.275,0,0,0-.23-0.929,2.767,2.767,0,0,0-4.05-.219c-0.58.619-1.02,1.381-1.65,1.932-1.59,1.4-3.26,2.705-4.9,4.054a11.3,11.3,0,0,0-1.92,1.666c-1.03,1.395-2.57,2.2-3.74,3.43a1.126,1.126,0,0,1-1.8,0c-1.17-1.115-2.31-2.252-3.45-3.4a36.01,36.01,0,0,1-4.13-4.5,14.69,14.69,0,0,0-1.94-2.014A1.538,1.538,0,0,0,3574.8,591.259Zm15.55-7.039c-0.48.088-.82,0.136-1.15,0.212-2.23.513-4.45,1.083-6.7,1.529a2.236,2.236,0,0,0-2.09,2.176,3.666,3.666,0,0,1-1.04,2.524,0.761,0.761,0,0,0,.01,1.3q2.775,2.818,5.59,5.6c1.52,1.5,1.59,1.527,3.03.033,2.06-2.144,4.05-4.353,6.06-6.54,0.74-.808.7-0.8,0.07-1.952a23.546,23.546,0,0,1-1.14-2.549,3.732,3.732,0,0,0-1.82-2.05A5.654,5.654,0,0,0,3590.35,584.22Zm14.9-23.834v0.027c-1.11,0-2.22-.019-3.32.009a1,1,0,0,0-1.02.943,21.473,21.473,0,0,1-.22,2.282,12.975,12.975,0,0,0,.02,6.549,1.945,1.945,0,0,1-.89,2.216,4.056,4.056,0,0,1-2.38.794,17.4,17.4,0,0,0-3.31.109,37.907,37.907,0,0,1-6.1.414c-0.68.032-1.36,0.069-2.04,0.129-1.18.106-2.36,0.3-3.54,0.334-2.21.062-4.43,0.025-6.64,0.051-1.36.017-2.71,0.071-3.88-.858a1.181,1.181,0,0,0-.91.168c-0.26.135-.15,0.628,0.17,0.861a25.148,25.148,0,0,0,6.64,3.737,25.932,25.932,0,0,0,9.54,1.25,19.665,19.665,0,0,0,6.45-1.35,28.95,28.95,0,0,0,7.77-4.823,11.88,11.88,0,0,0,1.35-1.521,36.223,36.223,0,0,0,5.24-9.016c0.98-2.187.89-2.284-1.4-2.3C3606.27,560.383,3605.76,560.386,3605.25,560.386Zm-29.94-35.816c-0.39,4.174,1.71,7.239,4.8,9.778a6.208,6.208,0,0,0,2.04,1,14.221,14.221,0,0,0,2.49.475,4.957,4.957,0,0,0,3.83-1.051,10.632,10.632,0,0,0,2.98-3.439,8.12,8.12,0,0,1,1.07-1.727,5.768,5.768,0,0,0,1.23-4.763,9.8,9.8,0,0,0-.52-2.208,11.668,11.668,0,0,0-3.36-4.724,7.311,7.311,0,0,0-5.07-2.046c-0.59.013-1.19,0.015-1.78,0a4.479,4.479,0,0,0-2.86.9,19.059,19.059,0,0,1-2.58,1.613,3.4,3.4,0,0,0-1.63,1.872A9.077,9.077,0,0,0,3575.31,524.57Zm2.12,28.673c-1.61,0-3.22-.037-4.84.014a1.35,1.35,0,0,0-1.32,1.556,42.344,42.344,0,0,0,.62,4.783,60.691,60.691,0,0,1,1.43,8.252,7.561,7.561,0,0,0,.46,1.716,0.919,0.919,0,0,0,1,.626c0.42-.016.83-0.109,1.25-0.167a24.253,24.253,0,0,1,2.51-.337c2.79-.093,5.57-0.065,8.37-0.4a43.478,43.478,0,0,1,8.37-.566,2.652,2.652,0,0,0,.51-0.035,1.063,1.063,0,0,0,.97-1c0.19-1.939.43-3.876,0.51-5.819,0.09-2.375.03-4.757,0.03-7.136a3.729,3.729,0,0,0-.13-1.254,1.181,1.181,0,0,0-.67-0.649,4.217,4.217,0,0,0-1.26-.09q-4.845.009-9.69,0.034a6.34,6.34,0,0,0-1.52.059C3581.85,553.389,3579.64,553.155,3577.43,553.243Zm23.83-30.56c1.56,0,2.58,0,3.6,0,0.43,0,.85-0.021,1.28-0.058a0.722,0.722,0,0,0,.64-0.893c-0.08-.589-0.17-1.177-0.26-1.764a34.348,34.348,0,0,0-1.73-6.9,8.357,8.357,0,0,0-5.77-5.329,30.792,30.792,0,0,0-5.49-1.062c-2.28-.228-4.54-0.635-6.82-0.012a2.064,2.064,0,0,1-.51.009,76.635,76.635,0,0,0-9.67.452,45.09,45.09,0,0,0-5.96,1.273,12.207,12.207,0,0,0-4.3,2.161c-0.67.519-1.26,1.145-1.92,1.687a9.411,9.411,0,0,0-2.96,4.941c-0.62,2.217-.9,4.493-1.38,6.734a0.867,0.867,0,0,0,1.18,1.1,53.419,53.419,0,0,1,8.96-1.864,2.218,2.218,0,0,0,2.05-1.643,8.749,8.749,0,0,1,1.85-3.324,42.352,42.352,0,0,1,4.1-4.192,7,7,0,0,1,4.23-1.568c0.68-.056,1.36-0.025,2.05-0.023,4.04,0.016,7.15,1.906,9.63,4.944a13.644,13.644,0,0,1,2.36,4.491,1.272,1.272,0,0,0,1.55.994Zm-28.09,27.576v0.034c1.79,0,3.58.013,5.36-.011a0.513,0.513,0,0,0,.57-0.649c-0.67-2.521.87-4.2,2.29-5.893a1.488,1.488,0,0,1,1.88-.267,4.578,4.578,0,0,1,2.14,2.113c0.57,1.136,1.03,2.328,1.54,3.5a1.244,1.244,0,0,0,1.57.926c3.31-.286,6.62-0.5,9.83.7a1.857,1.857,0,0,0,.25.053c2.09,0.445,2.11.442,2.48,2.492,0.12,0.666.13,1.35,0.19,2.027,0.03,0.424.01,0.855,0.07,1.273a0.879,0.879,0,0,0,.84.816c1.87,0.02,3.74,0,5.61-.034a0.962,0.962,0,0,0,.62-0.38,1.388,1.388,0,0,0-.35-2.141,1.47,1.47,0,0,1-.83-1.873,25,25,0,0,0,.16-6.857c-0.06-1.183-.24-2.361-0.35-3.542a6.324,6.324,0,0,0-.09-1.519,3.829,3.829,0,0,1-.11-2.478,1.241,1.241,0,0,0-.45-0.825,1.406,1.406,0,0,0-.7-0.274c-2.32-.5-4.64-1.07-6.98-1.437a26.278,26.278,0,0,0-4.08-.081,1.456,1.456,0,0,0-.72.221c-1.15.708-2.33,1.387-3.43,2.18a9.215,9.215,0,0,1-3.41,1.654c-1.4.314-2.8,0.714-4.22,0.912a8.077,8.077,0,0,1-2.77-.112,7.773,7.773,0,0,1-4.14-2.385,5.287,5.287,0,0,0-1.77-1.4,8.966,8.966,0,0,0-2.97-.609,41.273,41.273,0,0,0-8.89.552,0.791,0.791,0,0,0-.67,1.128,2.854,2.854,0,0,1-.2,2.437,2.461,2.461,0,0,0,.21,3.079,0.99,0.99,0,0,1-.01.931,5.107,5.107,0,0,0-1.08,2.28c-0.11,1.628-.73,3.146-0.94,4.741a11.44,11.44,0,0,0,.07,4.8c0.48,1.573.64,1.716,2.35,1.64a15.2,15.2,0,0,0,2.28-.25c1.74-.345,1.8-0.444,1.81-2.144,0.01-1.021-.03-2.045.01-3.064,0.06-1.514.71-2.206,2.18-2.248C3569.94,550.224,3571.56,550.259,3573.17,550.259Zm16.53-47.574c2.3,0,4.6.02,6.9-.007a9.825,9.825,0,0,1,3.76.607c0.87,0.342,1.76.633,2.65,0.919a9.152,9.152,0,0,1,5.11,4,21.573,21.573,0,0,1,2.96,8.348,87.31,87.31,0,0,1,.58,9.411c0.14,2.706.58,5.4,0.94,8.09a2.6,2.6,0,0,0,.57,1.109c1.79,2.492,2.88,5.171,2.36,8.322a1.452,1.452,0,0,0,.24.918,11.813,11.813,0,0,0,.87.926,4.3,4.3,0,0,1,1.09,2.8c0,0.6-.01,1.193.02,1.789a4.5,4.5,0,0,1-.87,2.881,30.8,30.8,0,0,1-3.78,4.805,3.341,3.341,0,0,0-1.06,1.977c-0.11.754-.35,1.489-0.51,2.238a29.585,29.585,0,0,1-3.5,8.734,24.57,24.57,0,0,1-6.7,7.275,20.393,20.393,0,0,1-6.01,3.322,2.231,2.231,0,0,0-.24.1,2.008,2.008,0,0,0-1.29,2.674,1.353,1.353,0,0,0,1.22,1.121c1.02,0.03,2.05.028,3.07,0a12.371,12.371,0,0,1,5.92,1.306c2.37,1.164,4.73,2.341,7.07,3.565a18.857,18.857,0,0,1,3.93,2.827,30.184,30.184,0,0,1,6.61,8.693c0.23,0.454.51,0.883,0.77,1.321a19.9,19.9,0,0,1,2.76,6.825c0.26,1.5.9,2.942,0.78,4.51-0.03.508-.04,1.022-0.12,1.523a1.322,1.322,0,0,1-1.27,1.067,1.369,1.369,0,0,1-1.47-.779,14.7,14.7,0,0,1-.62-1.941A37.714,37.714,0,0,0,3617.65,603a28.353,28.353,0,0,0-5.67-7.2,21.646,21.646,0,0,0-4.46-2.939,1.392,1.392,0,0,0-1.65.176c-3.38,2.723-6.77,5.427-10.14,8.149-2.18,1.763-4.35,3.548-6.53,5.315-0.39.321-.82,0.611-1.24,0.895a3.126,3.126,0,0,1-3.97-.2,113.322,113.322,0,0,1-9.25-8.781c-0.54-.54-1-1.158-1.5-1.735-0.67-.77-1.32-1.556-2.03-2.3a1.089,1.089,0,0,0-1.76-.256c-0.15.088-.28,0.2-0.42,0.29a38.8,38.8,0,0,0-12.92,13.19c-0.91,1.526-1.57,3.206-2.35,4.815a10.49,10.49,0,0,1-.91,1.813,2.89,2.89,0,0,1-1.21.85,1.009,1.009,0,0,1-1.34-.8,7.548,7.548,0,0,1,.33-3.525c0.74-1.9,1.38-3.848,2.19-5.72a23.764,23.764,0,0,1,4.4-6.224,41.885,41.885,0,0,1,5.2-4.519c1.05-.856,2.17-1.641,3.26-2.447a33.943,33.943,0,0,1,6.84-3.94,3.49,3.49,0,0,0,2.05-1.777c0.2-.446.72-0.741,0.96-1.179a6.225,6.225,0,0,0,.72-1.881,1.893,1.893,0,0,0-1.14-2.3,35.373,35.373,0,0,1-3.59-1.933,30.784,30.784,0,0,1-8.27-7.876,49.612,49.612,0,0,1-5.71-10.809,2.708,2.708,0,0,1-.13-0.493c-0.33-2.229-.87-2.39-2.85-2.359a3.678,3.678,0,0,1-1.91-.594c-2.23-1.419-3.77-3.366-3.04-6.91a6.319,6.319,0,0,1,1.78-3.581,3.775,3.775,0,0,0,.82-1.249,1.018,1.018,0,0,0-.72-1.379c-0.09-.018-0.17,0-0.26-0.018-1.44-.279-1.96-0.816-1.92-2.137a4.391,4.391,0,0,1,.37-1.722c0.51-1.071,1.12-2.1,1.73-3.119,0.39-.656.82-1.293,1.27-1.905a4.934,4.934,0,0,1,1.18-1.3,2.225,2.225,0,0,0,1.05-2.154c-0.03-2.386.01-4.772-.03-7.157a9.948,9.948,0,0,1,.56-3.506c0.7-2.009,1.31-4.051,2.05-6.045a16.3,16.3,0,0,1,4.5-7.013,10.2,10.2,0,0,1,4.21-2.294,58.722,58.722,0,0,1,8.26-1.524c1.94-.211,3.86-0.568,5.79-0.827a18.551,18.551,0,0,1,2.29-.159c2.39-.02,4.78-0.008,7.16-0.008v-0.022Zm23.43,102.749c-0.01-.141-0.02-0.821-0.09-1.494a1.208,1.208,0,0,0-1.03-.994c-1.5-.247-3.03-0.364-4.5-0.753a9.149,9.149,0,0,0-4.76.158,1,1,0,0,0-.83,1.113,24.5,24.5,0,0,0,.83,5.245,1.054,1.054,0,0,0,1.13.842c0.85-.04,1.69-0.116,2.53-0.227,1.67-.222,3.34-0.553,5.02-0.7,1.41-.121,1.72-0.365,1.7-1.891C3613.12,606.481,3613.13,606.226,3613.13,605.434Zm1.94,0.833a7.488,7.488,0,0,1-.52,3.615,2.143,2.143,0,0,0,.01,1.229,1.908,1.908,0,0,1-1.64,1.933c-2.11.138-4.18,0.7-6.32,0.6a12.068,12.068,0,0,0-4.29.353,3.076,3.076,0,0,1-1.26.029,2.2,2.2,0,0,1-2.03-1.67,27.939,27.939,0,0,1-.63-3.749,22.977,22.977,0,0,0-.43-4.289,4.038,4.038,0,0,1-.04-1.765,1.713,1.713,0,0,1,.64-1,9.59,9.59,0,0,1,4.29-1.508,15.312,15.312,0,0,1,6.06.2,14.421,14.421,0,0,0,4.51.651,1.177,1.177,0,0,1,1.29.978,10.424,10.424,0,0,1,.34,1.736C3615.11,604.359,3615.07,605.126,3615.07,606.267Zm-45.96-61.626c0.04-.763.03-1.531,0.12-2.289a1.866,1.866,0,0,1,1.51-1.523,2.076,2.076,0,0,1,2.11,1.088,5.021,5.021,0,0,1,.35,1.471c0.06,0.932.01,1.871,0.06,2.8a3.114,3.114,0,0,1-1.59,2.728,1.383,1.383,0,0,1-1.45-.032,2.129,2.129,0,0,1-.99-1.7c-0.03-.848-0.01-1.7-0.01-2.547h-0.11Zm24.06-.738a15.392,15.392,0,0,1,.34-2.323c0.43-1.55,1.56-1.886,2.91-.92a1.7,1.7,0,0,1,.65.734c0.51,1.616.93,3.241,0.23,4.93a1.707,1.707,0,0,1-1.9,1.288,2.019,2.019,0,0,1-2.07-1.522C3593.22,545.431,3593.23,544.75,3593.17,543.9Zm-7.54-18.59c-0.02-.159-0.04-0.409-0.09-0.652a0.958,0.958,0,0,0-1.57-.513,2.293,2.293,0,0,0-.91,1.7,0.886,0.886,0,0,0,.3.635,1.532,1.532,0,0,0,1.64.167A1.269,1.269,0,0,0,3585.63,525.313Zm-0.52-4.241c0.26,0,.51.011,0.76,0,1.7-.084,2.76.891,3.13,2.7a6.4,6.4,0,0,1-.89,4.859,3.462,3.462,0,0,1-2.46,1.6c-1.96.367-3.43-.555-4.71-1.862a1.944,1.944,0,0,1-.47-1.139,19.231,19.231,0,0,1,.01-3.036,3.059,3.059,0,0,1,3.11-3.043c0.5-.05,1.02-0.008,1.52-0.008v-0.065Z" transform="translate(-3549.31 -502.688)"/>
</svg>
