<svg xmlns="http://www.w3.org/2000/svg" width="100" height="94.06" viewBox="0 0 100 94.06">
  <defs>
    <style>
      .cls-1 {
        fill-rule: evenodd;
      }
    </style>
  </defs>
  <path id="face1" class="cls-1" d="M227.518,3595.44a30.6,30.6,0,0,1-14.745,19.16c-12.445-2.39-20.392-9.28-27.711-16.8-0.484-1.39-1.73-2.01-2.358-3.24-0.87-1-1.475-2.26-2.36-3.25-1.285-2.45-2.641-4.83-3.835-7.37-2.111-5.26-4.84-9.9-5.3-16.81,14.365-1.25,22.911-8.33,30.956-15.91,0.382-1.29,1.681-1.66,2.065-2.95,0.9-.67,1.148-2,2.063-2.66a2.311,2.311,0,0,1,.3-0.88c0.248-.06.277,0.11,0.294,0.29,3.242,11.51,13.017,17.86,25.057,20.94C230.87,3576.19,229.893,3586.51,227.518,3595.44Zm-45.406,15.04c-0.245-3.89-2.369-5.89-2.06-10.32,2.587,2.71,5.139,5.47,7.957,7.96C186.821,3609.68,184.825,3610.44,182.112,3610.48Zm73.705-11.21c-0.114-.86-1.728-0.23-2.061-0.88a57.644,57.644,0,0,0,2.061-10.32v-12.38c-1.088-12.48-3.187-23.94-8.252-32.44-2.347-4.43-5.856-7.7-9.14-11.2-3.751-3.03-7.387-6.17-13.267-7.07h-6.779a2.523,2.523,0,0,1-.888.29c-2.306-.15-3.759.56-5.894,0.59-1.6.57-3.758,0.57-3.835,2.65,0.392,1.48,1.736,2,3.835,1.77a38.886,38.886,0,0,1,5.306-.59c3.335,0.4,7.45.02,10.316,0.89a45.752,45.752,0,0,1,16.805,17.69c3.6,7.9,5.352,17.64,6.195,28.3v14.15c-0.294,1.87-.745,3.58-0.884,5.6-0.524.56-.218,1.95-0.3,2.95,1,0.83-1.163.98-1.766,1.18-0.677-.6-0.11-2.45-0.3-3.54v-4.12c-0.753-2.4.658-6.95-2.063-7.37-2.2.74-1.12,4.77-1.769,7.07v4.42c-0.191,1.39.384,3.53-.295,4.43-1.113-.23-1.41.35-2.358,0.29v-15.92c-0.2-1.57-.237-3.3-1.77-3.54-2.644,1-1.968,5.31-2.065,8.85v10.91c-1.584-.19-4.014.47-4.719-0.59a101.368,101.368,0,0,0,4.719-35.38c4.216-.41,7.661-1.58,7.961-5.9-2.16.3-3.872,1.04-5.9,1.47h-5.6c-9.513-2.18-16.379-7.01-20.937-14.15-1.185-1.96-1.832-4.45-3.24-6.19a5.53,5.53,0,0,1-3.244-.59c-1.626.93-2.59,2.52-3.832,3.83a28.4,28.4,0,0,0-3.835,3.84c-1.511,1.04-2.724,2.38-4.127,3.53-1.393,1.27-3.111,2.2-4.422,3.54-1.878.68-2.968,2.14-5.012,2.66-1.422,1.23-3.8,1.51-5.308,2.65-2.308.25-3.5,1.61-5.895,1.77-1.6,1.05-4.533.78-5.9,2.06-1.041,1.49,1.837,1.91.886,3.25a18.823,18.823,0,0,0-.3,4.12c1.133,5.26,2.2,10.58,4.125,15.04,1.1,2.14,2.152,4.34,3.247,6.49,0.48,0.75,1.166,1.56,1.47,2.06,0.169,0.27.1,0.6,0.3,0.88,0.288,0.43.833,0.7,1.179,1.18a5.633,5.633,0,0,1,.884,1.77c-1.54-.06-1.662,1.29-2.063,2.36-0.054,3.59,1.071,6,1.179,9.43h-3.539c-0.624-6.05-1.626-11.73-2.655-17.39-0.106-1.17.272-2.83-.293-3.54,0.074-1.45-.259-2.49-1.474-2.65-1.358.8-1.463,2.86-1.768,4.72,0.194,3.44.93,6.34,1.181,9.73,0.457,1.3.329,3.2,0.587,4.71,0.188,1.38.632,3.77,0.3,4.72-2.105-.18-4.959.26-6.193,0a56.493,56.493,0,0,0,1.181-6.78c-0.01-12.57-1.32-23.84-4.127-33.61-0.233-4.95.414-9.02,0.292-13.86,0.344-.05.321-0.46,0.295-0.88a37.212,37.212,0,0,1,4.717-8.85,11.9,11.9,0,0,1,2.951-3.83,9.012,9.012,0,0,1,3.537-3.24c0.893-1.37,2.681-1.84,3.832-2.95,1.629-.63,2.664-1.86,4.421-2.36,1.067-1.2,2.924-1.6,4.128-2.65,1.771-.59,3.069-1.65,5.011-2.07a1.446,1.446,0,0,0,.886-0.29h5.309c3.946,0.83,7.053,3.86,11.791,2.95-0.2-1.37-1.357-1.79-2.062-2.66-1.038-.53-1.712-1.43-2.951-1.77a18.061,18.061,0,0,0-6.778-2.65h-5.309a13.039,13.039,0,0,1-3.244.59c-1.672,1.08-4.118,1.38-5.6,2.65-2.178.68-3.692,2.01-5.6,2.95a66.146,66.146,0,0,0-10.026,7.08c-3.994,5.14-7.916,10.36-9.434,17.98a71.168,71.168,0,0,0,.3,7.37c0.118,1.4-1.212,1.35-.885,2.95,1.96,11.7,4.172,23.15,3.835,37.15,0.369,2.28.727,4.58,1.177,6.78,0.109,2.35-.606,2.81.294,4.42a118.7,118.7,0,0,0,15.333.59,48.8,48.8,0,0,0,10.318-1.77,14.5,14.5,0,0,1,2.359-1.47c0.565-.57,1.253-2.07,2.064-1.48,5.676,3.67,11.437,7.24,20.638,7.37,5.327-1.55,9.022-4.73,12.68-7.96a19.359,19.359,0,0,1,2.359-2.94c0.846-1.02,1.17-2.56,2.358-3.25,1.259,0.8,3.385.74,5.01,1.18,3.28,0.16,6.72.16,9.73,0.59,1.594-1.25,4.313-1.38,6.486-2.06,2.28-.67,5.106-0.79,5.308-3.54C256.645,3600.41,256.641,3599.43,255.817,3599.27Zm-23.881-50.12a47.5,47.5,0,0,0-2.652-7.66,9.329,9.329,0,0,1-1.472-2.95c-0.044-.1-0.516-0.19-0.593-0.3a7.739,7.739,0,0,0-.882-1.77,2.885,2.885,0,0,0-2.065-.59h-0.589a1.906,1.906,0,0,0-.293,1.18c0.121,1.84,1.546,2.39,1.768,4.13,0.848,1.22,1.12,3.01,1.766,4.42,0.429,1.54.925,3.01,1.478,4.43,0.531,1.53.708,3.41,2.652,3.53A6.868,6.868,0,0,0,231.936,3549.15Zm-35.378-12.97a7.539,7.539,0,0,1-.59.88,5.811,5.811,0,0,0-1.176,1.77,95.389,95.389,0,0,1-10.32,8.85c-2,1.24-3.744,2.74-6.192,3.54-1.518,1.72-5.414,1.07-5.011,4.71,7.082,0.98,11.267-3.47,15.623-6.19,2.151-1.58,3.892-3.58,5.9-5.31,1.544-2.18,3.869-3.59,3.831-7.37C197.914,3536.79,197.843,3535.88,196.558,3536.18Zm42.752,8.55c-0.937-1.82-.9-4.6-3.538-4.72-1.009-.12-0.887.88-1.476,1.18,0.213,2.94,1.481,4.81,2.065,7.37,0.559,2.69.2,6.3,2.652,7.08,1.088-.88,1.523-2.41,1.77-4.13A34.5,34.5,0,0,0,239.31,3544.73Zm-18.576,23.88c-1.776-.62-4.336-0.42-5.306.88-0.324.44,0.068,1.01-.59,1.18a13.725,13.725,0,0,0,.59,5.31c0.9,0.38,1.475,1.08,2.653,1.18C221.279,3576.77,222.139,3571.73,220.734,3568.61Zm-26.828,2.06c-1.1-1.78-2.9-1.38-4.422.3-0.58,2.17-.892,5.02.3,6.78,0.905-.22.565,0.81,1.471,0.59,1.926,0.15,2.352-1.19,3.246-2.07C194.647,3573.96,194.483,3571.61,193.906,3570.67Zm10.023,13.56c-1.595.08-2.915,0.43-2.946,2.07,0.06,1.9,1.813,2.12,3.832,2.06,1.5-.46,3.32-0.61,3.242-2.65C207.886,3584.02,205.565,3583.55,203.929,3584.23Zm-3.244,15.04c-0.26-.95.975-0.4,0.889-1.18,1.614-.05,1.595,1.55,2.946,1.77,3.121,0.56,3.244-1.86,5.6-2.06a1.3,1.3,0,0,0,.59,1.18C209.3,3601.98,202.369,3602.06,200.685,3599.27Zm13.564-2.06c-1-.87-1.413-2.32-2.357-3.25-3.24-.28-4.885,1.02-6.49,2.36a3.578,3.578,0,0,0-3.828-2.06,3.212,3.212,0,0,0-1.771,1.47c-0.96.22-.9,1.47-1.477,2.07-1.488-.48-1.931-2-4.126-1.77-0.492.49-1.193,0.77-1.178,1.77,0.519,1.96,2.975,2.81,5.011,2.36,0.184,1.48,1.086,2.25,1.77,3.24,2.544,1.85,7.329,2.28,10.908,1.47a28.851,28.851,0,0,1,3.246-2.36c-0.14-.92.792-0.77,0.881-1.47,0.691-.1.288-1.29,0.885-1.47,2.285-.97,5.124-1.52,5.6-4.13C218.984,3593.26,217.323,3597.4,214.249,3597.21Z" transform="translate(-157 -3524.97)" fill="#20CD84"/>
</svg>
