<svg xmlns="http://www.w3.org/2000/svg" width="108.37" height="97.59" viewBox="0 0 108.37 97.59">
  <defs>
    <style>
      .cls-1 {
        fill-rule: evenodd;
      }
    </style>
  </defs>
  <path id="_1120-family" data-name=" 1120-family" class="cls-1" d="M3749.7,1966.2c-0.08-.12-0.15-0.23-0.22-0.35a0.724,0.724,0,0,0-.23.31,1.2,1.2,0,0,0,.28.41C3749.59,1966.45,3749.64,1966.33,3749.7,1966.2Zm-0.04,1.37a0.4,0.4,0,0,0-.14.17,11.937,11.937,0,0,0,.39,1.29,0.416,0.416,0,0,0,.38.1,0.437,0.437,0,0,0,.21-0.36c-0.17-.41-0.4-0.8-0.61-1.2A0.571,0.571,0,0,0,3749.66,1967.57Zm-0.97-3.74c0.07,0.21.17,0.57,0.31,0.91a0.441,0.441,0,0,0,.39,0,1.259,1.259,0,0,0-.07-1.68,0.261,0.261,0,0,0-.2-0.09,0.746,0.746,0,0,0-.33.24A2.422,2.422,0,0,0,3748.69,1963.83Zm1.07-40.58c-0.2,2.39-.39,4.77-0.62,7.15a6.18,6.18,0,0,1-.39,1.38c-0.24.68-.52,1.34-0.75,2.02a0.619,0.619,0,0,0,.42.93c0.23,0.07.47,0.1,0.7,0.16a29.533,29.533,0,0,1,9.11,4.17,5.427,5.427,0,0,1,1.74,1.92,52.261,52.261,0,0,1,3.37,7.94,41.78,41.78,0,0,1,1.16,5.62c0.13,0.7.28,1.4,0.36,2.12a7.356,7.356,0,0,1,.09,2.14,54.076,54.076,0,0,0-.45,9.08c-0.02.8,0.06,1.61-.02,2.4a13.365,13.365,0,0,1-.47,2.33,2.083,2.083,0,0,1-2.15,1.56c-1.82.06-2.34-.35-2.46-2.11-0.17-2.39-.65-4.73-0.91-7.1a35.91,35.91,0,0,1-.58-5.95,28.593,28.593,0,0,0-.74-5.44,3.059,3.059,0,0,0-.4-1.13,0.881,0.881,0,0,0-1.05-.37,1.015,1.015,0,0,0-.65.59,7.823,7.823,0,0,0,.05,2.37,11.925,11.925,0,0,1,.27,2.85c-0.01,3.84-.04,7.68-0.03,11.52a21.544,21.544,0,0,0,.39,5.72,7.788,7.788,0,0,1,.1,1.68,42.007,42.007,0,0,0,.4,5.24,31.366,31.366,0,0,1,.14,4.55,10.415,10.415,0,0,0,.31,3.33,6.982,6.982,0,0,1,.16,1.66,8.581,8.581,0,0,0,.07,1.44c0.78,3.16.34,6.37,0.36,9.56a7.059,7.059,0,0,1-1.52,4.45,3.632,3.632,0,0,1-1.71,1.23,2.893,2.893,0,0,1-3.83-1.44,6.475,6.475,0,0,1-.9-2.96,10.922,10.922,0,0,1,.12-2.62,15.889,15.889,0,0,0,.01-5.24,32.566,32.566,0,0,1-.17-4.31,12.734,12.734,0,0,0-.52-4.02,12.257,12.257,0,0,1-.52-4.26,9.613,9.613,0,0,0-.02-1.2,1.187,1.187,0,0,0-.84-1.06,0.975,0.975,0,0,0-.22-0.08c-1.26-.24-2.5-0.49-3.76-0.68a1.07,1.07,0,0,0-1.21,1.33c0.28,2.62.78,5.2,1.2,7.8,0.32,1.96.66,3.93,0.85,5.9a16.615,16.615,0,0,1-.23,6.2c-0.32,1.13-.1,2.39-0.53,3.53-0.14.37-.16,0.79-0.31,1.16a2.157,2.157,0,0,1-1.49,1.44c-0.23.06-.44,0.18-0.67,0.24-2.39.6-3.28,0.09-3.8-1.97-0.63-2.55-1.22-5.12-1.83-7.67,0.01-3.86-1.23-7.55-1.6-11.36-0.28-2.85-.62-5.71-0.96-8.55-0.41-3.52-.31-7.02-0.44-10.53-0.03-.63-0.16-1.27-0.18-1.9a19.483,19.483,0,0,1-.04-3.58,57.611,57.611,0,0,0,.22-7.66,0.936,0.936,0,0,0-.34-0.57c-0.15-.16-0.6.12-0.71,0.48a5.192,5.192,0,0,0-.39,1.61,27.8,27.8,0,0,1-.73,5.45,11.391,11.391,0,0,0-.18,1.66,28.4,28.4,0,0,1-.52,6.43,11.52,11.52,0,0,0-.05,1.67,5.449,5.449,0,0,1-.33,1.38,3.517,3.517,0,0,1-5.25,1.42,1.34,1.34,0,0,1-.47-0.53,6.761,6.761,0,0,1-.89-4.61,38.5,38.5,0,0,0,.87-7.11,26.212,26.212,0,0,1,.56-4.75,14.38,14.38,0,0,0,.33-3.8,14.64,14.64,0,0,1,1.44-6.25c0.06-.15.13-0.29,0.2-0.43a12.538,12.538,0,0,1,3.72-5.21,40.873,40.873,0,0,1,4.97-4.51,30.031,30.031,0,0,1,3.84-2.44,8.436,8.436,0,0,0,1.22-.74,0.645,0.645,0,0,0,.2-0.86c-0.64-1.19-1.33-2.37-1.94-3.58a18.634,18.634,0,0,1-2.24-7.27,12.72,12.72,0,0,1,0-3.54,9.325,9.325,0,0,1,2.63-4.75,12.754,12.754,0,0,1,4.12-2.84,2.555,2.555,0,0,1,2.08.01,7.589,7.589,0,0,1,4.62,5.72A28.412,28.412,0,0,1,3749.76,1923.25Zm61.82,41.17c0.06-.03.13-0.06,0.19-0.09a0.385,0.385,0,0,0-.16-0.13,0.646,0.646,0,0,0-.19.09C3811.48,1964.34,3811.53,1964.38,3811.58,1964.42Zm-3-7.95c-0.26-.1-0.44-0.17-0.62-0.23a4.132,4.132,0,0,0-.13.61,0.485,0.485,0,0,0,.32.17A3.194,3.194,0,0,0,3808.58,1956.47Zm4.39,14.47a1.327,1.327,0,0,0,.21-0.09,0.81,0.81,0,0,0,.27-1.02,0.6,0.6,0,0,0-.52-0.27,0.88,0.88,0,0,0-.32,1.19A1.1,1.1,0,0,0,3812.97,1970.94Zm2.91-43.11c0,0.88.02,1.76,0,2.64a1.871,1.871,0,0,1-.93,1.59,9.051,9.051,0,0,1-2.13,1.07,4.087,4.087,0,0,0-1.74,1.21,1.13,1.13,0,0,0,.07,1.7c1.35,1.11,2.72,2.22,4.13,3.25a10.553,10.553,0,0,1,3.3,3.08,6.817,6.817,0,0,0,.96,1.06,47.8,47.8,0,0,1,8.37,12.49,3.364,3.364,0,0,1,.35.89,11.37,11.37,0,0,0,1.41,3.55,10.486,10.486,0,0,1,1.15,4.12,3.206,3.206,0,0,1-4.38,3.19,2.8,2.8,0,0,1-1.86-1.7,1.66,1.66,0,0,1-.2-0.43c-0.13-1.88-1.29-3.23-2.36-4.61a36.448,36.448,0,0,1-3.17-5.07,21.653,21.653,0,0,0-4.81-5.92,0.966,0.966,0,0,0-.62-0.04,0.8,0.8,0,0,0-.05.43,4.434,4.434,0,0,0,.19.69c0.11,0.3.23,0.6,0.36,0.89,0.83,1.82,1.66,3.63,2.48,5.45a51.318,51.318,0,0,1,2.91,8.61,30.653,30.653,0,0,0,2.38,7.27,11.3,11.3,0,0,1,.83,3.71,18.721,18.721,0,0,1,.1,3.59c-0.09,1.84-.67,2.53-2.44,3.11-0.23.08-.47,0.09-0.7,0.16a0.868,0.868,0,0,0-.69.87,6.689,6.689,0,0,0,.12,1.9,11.026,11.026,0,0,1,.36,3.32,33.081,33.081,0,0,0,.73,6.88,9.483,9.483,0,0,1-.4,5.43,29.334,29.334,0,0,1-1.8,3.36,3.443,3.443,0,0,1-1.02.99,1.881,1.881,0,0,1-2.02.33,2.353,2.353,0,0,1-1.66-2.13c0.02-3.27-.58-6.51-0.53-9.79a19,19,0,0,0-.58-4.49,16.586,16.586,0,0,1-.37-3.57c-0.01-.47-0.01-0.96-0.05-1.43a1.062,1.062,0,0,0-.69-0.91,6.25,6.25,0,0,0-3.53-.25,0.719,0.719,0,0,0-.45.48,8.615,8.615,0,0,0,.03,1.9c0.34,2.13.66,4.25,0.83,6.4a40.464,40.464,0,0,0,.7,4.48,5.741,5.741,0,0,1,.04,2.37,42.524,42.524,0,0,0-.83,4.22,2,2,0,0,1-3.15,1.34,3.9,3.9,0,0,1-2.05-2.82c-0.02-.23-0.16-0.45-0.18-0.69a43.319,43.319,0,0,0-1.16-7.06c-0.28-1.15-.29-2.37-0.53-3.54a25.512,25.512,0,0,1-.41-5.72c0.01-.4.01-0.8-0.01-1.2a1.1,1.1,0,0,0-1.16-1.22c-1.03-.17-2.06-0.3-3.06-0.55a6,6,0,0,1-1.72-.8,1.729,1.729,0,0,1-.71-0.93,10.012,10.012,0,0,1-.48-4.48c0.35-1.8.7-3.6,1.11-5.39,0.59-2.48,1.25-4.95,1.85-7.43q1.3-5.34,2.57-10.71a5.948,5.948,0,0,0,.01-1.4,0.254,0.254,0,0,0-.14-0.18,0.267,0.267,0,0,0-.23.03,1.009,1.009,0,0,0-.35.29c-1.19,2.18-2.41,4.33-3.51,6.55a22.155,22.155,0,0,0-.93,2.96,10.755,10.755,0,0,1-.67,1.77,2.171,2.171,0,0,1-1.7,1.52c-1.22.08-2.4,0.06-3.29-1a2.357,2.357,0,0,1-.63-1.5,12.1,12.1,0,0,1,1.01-5.61c0.63-1.38,1.34-2.73,2.05-4.07,0.78-1.48,1.66-2.92,2.4-4.42a38.916,38.916,0,0,1,4.16-6.71c0.64-.82,1.16-1.73,1.79-2.55a5.555,5.555,0,0,1,2.96-2.32c1.12-.28,1.49-1.36,2.13-2.13a0.684,0.684,0,0,0-.17-0.63,5.661,5.661,0,0,0-1.59-1.02,5.121,5.121,0,0,1-2.5-1.33,1.8,1.8,0,0,0-.64-0.29c-1.15-.5-1.54-0.99-1.43-2.13a11.6,11.6,0,0,1,.58-2.81,15.353,15.353,0,0,1,1.72-3.67,35.339,35.339,0,0,1,4.31-5.43,5.027,5.027,0,0,1,3.22-1.36,6.155,6.155,0,0,1,6.09,3.04,14.222,14.222,0,0,1,2.7,8.06c-0.01.4,0,.8,0,1.2h-0.05Zm-42.59,69.02c0-2,.02-4-0.01-5.99-0.01-1.05-.25-1.33-1.23-1.38a2.844,2.844,0,0,1-2.19-.74,3.528,3.528,0,0,1-.93-2.4c0-2.88-.16-5.77.09-8.62a70.1,70.1,0,0,1,1.41-7.27,3.734,3.734,0,0,1,1.07-1.55c0.55-.68,1.53-1.1,1.61-2.01a9.258,9.258,0,0,0-.43-2.33c-0.15-.86-0.28-1.72-0.41-2.59-0.08-.55-0.1-1.11-0.22-1.65a5.485,5.485,0,0,1,.01-2.61,11.149,11.149,0,0,0,.21-1.41,3.681,3.681,0,0,1,3.09-3.18,3.817,3.817,0,0,1,3.91,2.17,7.539,7.539,0,0,1,.6,2.54,25.882,25.882,0,0,1-.25,6.92,0.862,0.862,0,0,0,.69,1.09,8.21,8.21,0,0,1,3.74,2,4.464,4.464,0,0,1,1.64,2.29c0.6,1.99,1.27,3.96,1.74,5.98a20.457,20.457,0,0,1,.21,3.34,28.643,28.643,0,0,0,.27,3.08,14.276,14.276,0,0,1-.48,5.21,2.125,2.125,0,0,1-2.08,1.68,7.627,7.627,0,0,1-1.42-.16c-0.92-.14-1.09,0-1.11.95a4.313,4.313,0,0,0,.01.72,22.086,22.086,0,0,1,.01,5.45,14.74,14.74,0,0,0,.29,4.28,17.026,17.026,0,0,1,.12,3.58,3.379,3.379,0,0,1-.76,1.98,1.174,1.174,0,0,1-1.7.16,12.01,12.01,0,0,1-.89-1.11c-0.4-.49-0.79-1-1.23-1.45a0.609,0.609,0,0,0-1.09.28,15.872,15.872,0,0,1-.61,1.8,1.273,1.273,0,0,1-2.18.3,4.6,4.6,0,0,1-1.6-3.6c0.05-1.92.01-3.83,0.01-5.75h0.09Z" transform="translate(-3722.44 -1910.88)" fill="#6EC17F" />
</svg>
