<svg xmlns="http://www.w3.org/2000/svg" width="104.69" height="111.156" viewBox="0 0 104.69 111.156">
  <defs>
    <style>
      .cls-1 {
        fill-rule: evenodd;
      }
    </style>
  </defs>
  <path id="_0408-stethoscope_" data-name=" 0408-stethoscope " class="cls-1" d="M1494.48,738.1a0.557,0.557,0,0,0-.11-0.186,0.67,0.67,0,0,0-.41-0.127,4.1,4.1,0,0,0-1.85,1.72,0.415,0.415,0,0,0,.08.393,0.526,0.526,0,0,0,.42.105,3.107,3.107,0,0,0,1.85-1.678A0.814,0.814,0,0,0,1494.48,738.1Zm-5.58,2.677a0.4,0.4,0,0,0,.2-0.085,8.007,8.007,0,0,0,.57-1.208,0.821,0.821,0,0,0-.73-0.754,0.812,0.812,0,0,0-.88.836,4,4,0,0,0,.44,1.034A0.874,0.874,0,0,0,1488.9,740.78Zm-13.19-2.94a0.461,0.461,0,0,0-.14.159,0.289,0.289,0,0,0,.01.228,5.359,5.359,0,0,0,3.66,1.253,0.45,0.45,0,0,0,.13-0.375,0.545,0.545,0,0,0-.29-0.341c-1.04-.344-2.09-0.664-3.14-0.984A0.536,0.536,0,0,0,1475.71,737.84Zm8.9,1.964a1.032,1.032,0,0,0,.8,1.03,1.165,1.165,0,0,0,.78-0.417,5.134,5.134,0,0,0,.57-1.271,0.482,0.482,0,0,0-.23-0.366A1.279,1.279,0,0,0,1484.61,739.8Zm73.01-34.969a13.718,13.718,0,0,0-.12-1.746,3.454,3.454,0,0,0-.53-1.294,7.113,7.113,0,0,0-3.71-2.465,2.265,2.265,0,0,0-.94-0.029,5.9,5.9,0,0,0-4.67,2.906,4.135,4.135,0,0,0-.65,1.517,6.262,6.262,0,0,0,1.89,5.868,3.349,3.349,0,0,0,3.05.985,7.007,7.007,0,0,0,3.42-1.6C1556.67,707.785,1557.91,706.534,1557.62,704.835Zm-45.68-8.878c0-1.919.01-3.839,0-5.758a8.581,8.581,0,0,0-.11-1.433,1.569,1.569,0,0,0-1.41-1.425,31.586,31.586,0,0,0-3.59-.1,1.237,1.237,0,0,0-1.15,1.054c-0.17.616-.32,1.236-0.46,1.859a3.282,3.282,0,0,1-1.16,1.772,2.319,2.319,0,0,1-2.87.141,3.951,3.951,0,0,1-1.57-3.805,14.049,14.049,0,0,0,.03-3.3,5.791,5.791,0,0,1,1.48-4.189,1.544,1.544,0,0,1,1.95-.35,3.2,3.2,0,0,1,1.56,1.432c0.15,0.283.29,0.57,0.43,0.858a1.2,1.2,0,0,0,1.13.751c1.52,0,3.04.036,4.55-.059a5.146,5.146,0,0,0,1.81-.59,2.271,2.271,0,0,1,2.99.66c0.42,0.483.88,0.927,1.28,1.427a2.424,2.424,0,0,1,.57,1.037,24.127,24.127,0,0,1,.74,4.231c-0.07,2.638.02,5.282-.11,7.916-0.1,1.9-.46,3.791-0.7,5.686a18.936,18.936,0,0,1-.29,2.132,86.544,86.544,0,0,1-3.47,12.178c-1.07,2.657-2.2,5.3-3.11,8.038a22.911,22.911,0,0,1-2.39,4.674,39.066,39.066,0,0,1-3.44,5.468c-2.65,3-5.31,6.014-8.67,8.23a44.152,44.152,0,0,1-5.98,3.015,2.517,2.517,0,0,0-1.4,1.193,17.072,17.072,0,0,0-1.53,2.962,11.6,11.6,0,0,0-.12,3.337,29.381,29.381,0,0,1-.69,6.418,45.085,45.085,0,0,0-.33,8.125,3.778,3.778,0,0,0,.38,1.373,25.745,25.745,0,0,0,3.79,6.083,9.107,9.107,0,0,0,3.27,2.754,6.36,6.36,0,0,1,1.18.816,12.765,12.765,0,0,0,7.79,2.691,25.635,25.635,0,0,0,6.19-.408,7.846,7.846,0,0,0,2.66-1,7.824,7.824,0,0,1,3.47-1.529,1.345,1.345,0,0,0,.46-0.15c3.41-1.761,6.86-3.486,9.05-6.858,1.34-1.286,2.07-3.03,3.27-4.422a3.5,3.5,0,0,0,.48-0.822c0.68-1.532,1.4-3.051,2-4.615,0.31-.809.34-1.721,0.6-2.554a20.979,20.979,0,0,0,.71-6.641c-0.03-2.159-.02-4.32-0.12-6.476a27.175,27.175,0,0,0-.51-4.506,30.845,30.845,0,0,1-.44-5.243c-0.06-1.032-.21-2.059-0.28-3.091-0.07-1.116-.04-2.238-0.12-3.352a33.475,33.475,0,0,1,1.51-11.339,25.471,25.471,0,0,1,1.51-4.036,33.863,33.863,0,0,1,4.15-7.266,14.845,14.845,0,0,1,3.59-3.11,4.51,4.51,0,0,1,.85-0.441,2.49,2.49,0,0,0,1.73-2.6,5.767,5.767,0,0,1,2.03-4.214c1.48-1.43,3.17-2.654,5.5-2.429a15.083,15.083,0,0,0,3.08-.3,4.734,4.734,0,0,1,3.55,1.13c1.6,1.252,3.04,2.659,3.4,4.763a13.876,13.876,0,0,1-1.16,9.091,17.962,17.962,0,0,1-1.24,2.055,4.475,4.475,0,0,1-3.53,2.189,9.28,9.28,0,0,0-1.17.226,7.068,7.068,0,0,1-5.28-.966,8.506,8.506,0,0,1-3.07-2.6,1,1,0,0,0-1.64-.214,20.015,20.015,0,0,0-4.75,5.36,33.926,33.926,0,0,0-3.75,9.56,7.728,7.728,0,0,0-.16,1.664c0,2.559-.05,5.122.06,7.677,0.08,2.067.37,4.127,0.58,6.189,0.1,1.03.23,2.057,0.35,3.085,0.08,0.712.16,1.424,0.25,2.134,0.03,0.237.12,0.47,0.13,0.706,0.1,4.629.84,9.232,0.59,13.876a16.871,16.871,0,0,1-2.79,8.781c-0.81,1.191-1.53,2.436-2.37,3.6-0.7.97-1.49,1.869-2.26,2.787-0.61.735-1.22,1.472-1.87,2.173a24.93,24.93,0,0,1-2.36,2.383c-1.91,1.568-3.83,3.125-5.85,4.541a15.728,15.728,0,0,1-3.63,1.816,48.525,48.525,0,0,1-8.09,2.123,18.127,18.127,0,0,1-5.68.048,52.011,52.011,0,0,1-5.88-1.088,10.181,10.181,0,0,1-3.87-1.822c-2.02-1.572-3.95-3.246-5.91-4.883a12.178,12.178,0,0,0-1.46-1.235,4.208,4.208,0,0,1-1.74-2.222c-0.4-1.04-.78-2.1-1.14-3.154-0.31-.907-0.55-1.836-0.87-2.74a22,22,0,0,1-.95-11.315c0.07-.391.04-0.8,0.09-1.193,0.24-1.978.45-3.958,0.73-5.929,0.21-1.5.5-2.984,0.75-4.477a2.444,2.444,0,0,0-.64-2.213,15.308,15.308,0,0,0-3.28-2.78,34.683,34.683,0,0,1-6.01-3.917c-1.01-.9-2.07-1.755-3.02-2.726-1.05-1.082-1.97-2.282-2.98-3.41a18.014,18.014,0,0,0-1.52-1.532,13.843,13.843,0,0,1-3.41-4.874,45.782,45.782,0,0,1-2.61-9.193c-0.23-1.092-.36-2.2-0.54-3.305-0.49-3.072-.58-6.195-1.04-9.257a59.711,59.711,0,0,1-.32-8.121,12.925,12.925,0,0,1,.27-3.335,8.082,8.082,0,0,0,.11-1.91,36.138,36.138,0,0,1,.95-7.1,5.009,5.009,0,0,1,1.12-2.351,3.605,3.605,0,0,1,1.56-1.061,1.787,1.787,0,0,1,2.33.612,1.727,1.727,0,0,0,1.81.849c0.32-.023.64-0.018,0.96-0.024,1.33-.022,1.97-0.458,1.84-1.877a2.833,2.833,0,0,1,1.6-2.731,4.125,4.125,0,0,1,3-.553,2.73,2.73,0,0,1,2.02,2.141,19.683,19.683,0,0,1-.61,7.6,5.311,5.311,0,0,1-2,2.626,2.016,2.016,0,0,1-2.96-.986c-0.24-.76-0.36-1.556-0.58-2.325a1.207,1.207,0,0,0-1.24-.921c-1.11.128-2.21,0.266-3.32,0.433a0.813,0.813,0,0,0-.71.84c-0.01,2.318-.08,4.64.04,6.952,0.05,0.873.05,1.715,0.02,2.587-0.11,3.194-.21,6.4-0.02,9.589a25.077,25.077,0,0,0,1.38,6.3c0.77,2.354,1.57,4.7,2.38,7.041a18.745,18.745,0,0,0,2.16,4.263,39.067,39.067,0,0,0,5.72,7.06,7.292,7.292,0,0,0,3.56,1.879c1.95,0.406,3.92.694,5.88,1.061,0.94,0.177,1.87.417,2.8,0.635a2.787,2.787,0,0,0,.92.225,25.734,25.734,0,0,0,4.94-.734,17.137,17.137,0,0,0,5.79-3.316c0.53-.482,1.16-0.843,1.69-1.329a15.088,15.088,0,0,0,4.12-5.214c0.74-1.76,1.84-3.362,2.73-5.06a37.154,37.154,0,0,0,3.53-10.143c0.41-2.112.91-4.211,1.44-6.3a11.88,11.88,0,0,0,.34-2.843c-0.01-1.759,0-3.519,0-5.278h0.04Z" transform="translate(-1456.25 -679.094)" fill="#bf0012"/>
</svg>
