<svg xmlns="http://www.w3.org/2000/svg" width="101.75" height="105.97" viewBox="0 0 101.75 105.97">
  <defs>
    <style>
      .cls-1 {
        fill-rule: evenodd;
      }
    </style>
  </defs>
  <path id="_0613-microbe" data-name=" 0613-microbe" class="cls-1" d="M2446.9,1132.49a1.777,1.777,0,0,0,.79-0.26,1.866,1.866,0,0,0-.3-2.76,2.767,2.767,0,0,0-3.23.97,0.638,0.638,0,0,0,.05.84A3.357,3.357,0,0,0,2446.9,1132.49Zm-27.56-19.99h-0.03a6.967,6.967,0,0,0,.04.79,2.31,2.31,0,0,0,2.33,1.75,0.816,0.816,0,0,0,.8-0.57,4.27,4.27,0,0,0-1.2-3.46,1.161,1.161,0,0,0-1.94.83A4.846,4.846,0,0,0,2419.34,1112.5Zm60.6,10.04a14.27,14.27,0,0,0,2.01-.76,1.628,1.628,0,0,0,.81-1.8,7.159,7.159,0,0,0-.23-1.02,0.852,0.852,0,0,0-1.23-.58,7.843,7.843,0,0,0-3.52,2.65,0.486,0.486,0,0,0,.21.77C2478.62,1122.09,2479.28,1122.3,2479.94,1122.54Zm-24.29-81.28c1.67,0.02,1.78-.04,2.11-1.08a3.129,3.129,0,0,0-2.03-3.88,2.089,2.089,0,0,0-2.43.83,15.346,15.346,0,0,0-.72,1.4,1.164,1.164,0,0,0,.24,1.43A4.076,4.076,0,0,0,2455.65,1041.26Zm30.1,13.78a5.006,5.006,0,0,0,1.45,3.37,0.842,0.842,0,0,0,.71.08,1.617,1.617,0,0,0,.74-0.52,13.138,13.138,0,0,0,2.34-5.24,0.642,0.642,0,0,0-.45-0.84,4.472,4.472,0,0,0-2.71.12A3.513,3.513,0,0,0,2485.75,1055.04Zm9.75,31.37h0.03c0,0.4-.02.79,0.01,1.19a3.355,3.355,0,0,0,.21.75,1.209,1.209,0,0,0,1.44,1.03c3.4,0.06,4.25-3.42,3.53-5.49a0.832,0.832,0,0,0-.9-0.63,12.642,12.642,0,0,0-2.7.37,2.021,2.021,0,0,0-1.62,2.26v0.52Zm-78.01-38.21a2.841,2.841,0,0,0-2.65,2.14,1.333,1.333,0,0,0,.16,1.34,20.965,20.965,0,0,1,1.35,2.41c0.44,0.92.79,1.1,1.72,0.75a6.566,6.566,0,0,0,2.01-1.46,1.757,1.757,0,0,0,.57-1.79,3.811,3.811,0,0,0-1.65-2.73A12.082,12.082,0,0,0,2417.49,1048.2Zm-5.51,38.51a0.678,0.678,0,0,0-.03-0.34,4.9,4.9,0,0,1-.58-2.52,2.37,2.37,0,0,0-.41-0.96c-0.52-.84-1.11-1.7-2.2-1.68-1.06.02-1.65,0.88-2.19,1.7a1.659,1.659,0,0,0-.13,1.74c0.31,0.68.57,1.39,0.89,2.06a11.506,11.506,0,0,0,.94,1.73,1.814,1.814,0,0,0,2.12.61A3,3,0,0,0,2411.98,1086.71Zm62.3-3.44a57.075,57.075,0,0,0-.57-6.16,23.263,23.263,0,0,0-3.97-9.26,15.9,15.9,0,0,0-7.77-5.85,17,17,0,0,0-5.56-.94,37.389,37.389,0,0,0-7.77.35,42.3,42.3,0,0,0-7.81,2.36,27.134,27.134,0,0,0-9.86,6.68,4.758,4.758,0,0,0-1.18,2.02,30.961,30.961,0,0,0-1.16,8.06c0.01,1.49.18,2.98,0.2,4.47a23.445,23.445,0,0,0,.76,5.07,32.341,32.341,0,0,0,3.76,8.83,24.806,24.806,0,0,0,6.76,7.48,19.123,19.123,0,0,0,8.37,3.67c0.9,0.15,1.86.07,2.74,0.29,1.78,0.44,3.5-.09,5.24-0.16a6.9,6.9,0,0,0,1.68-.3,20.682,20.682,0,0,0,9.71-6.79,25.157,25.157,0,0,0,5.04-9.78A34.683,34.683,0,0,0,2474.28,1083.27Zm-57.07,3.44c-0.66,0-1.32-.01-1.98,0a0.577,0.577,0,0,0-.66.64c0,0.22.01,0.44,0.01,0.67a5.68,5.68,0,0,1-5.78,5.77,5.236,5.236,0,0,1-4.51-2.57,9.379,9.379,0,0,1-1.53-4.45,7.947,7.947,0,0,1,.45-2.83,1.534,1.534,0,0,1,1.56-1.19,0.8,0.8,0,0,0,.85-0.67,9.082,9.082,0,0,1,.41-0.97c0.97-2.14,4.43-2.69,5.92-.86a15.656,15.656,0,0,1,1.26,1.68,1.008,1.008,0,0,0,1.23.49,12.65,12.65,0,0,1,5.74-.18c0.68,0.16,1.35.39,2.01,0.61,0.76,0.27,1.03.11,1.11-.72a2.549,2.549,0,0,0,.02-0.39,25.758,25.758,0,0,1,1.82-9.54c0.14-.37.3-0.73,0.45-1.09,0.37-.94.73-1.88,1.11-2.81,0.21-.53.43-1.06,0.68-1.57a1.08,1.08,0,0,0-.22-1.43c-0.54-.52-1.08-1.04-1.59-1.59-1.27-1.34-2.54-2.69-3.77-4.06a1.427,1.427,0,0,0-1.96-.45,6.847,6.847,0,0,1-3.87.52,4,4,0,0,1-2.8-1.6,8.155,8.155,0,0,1-2.04-5.83,14.458,14.458,0,0,1,.29-3.14,6.368,6.368,0,0,1,7.96-4.45,7.443,7.443,0,0,1,3.61,2.77c1.53,1.96,1.58,4.23,1.28,6.54a1.4,1.4,0,0,0,.28,1.32c1.73,1.87,3.45,3.76,5.17,5.64a7.4,7.4,0,0,0,.56.56c0.78,0.67.98,0.7,1.84,0.1a41.811,41.811,0,0,1,14.69-6.02,30.149,30.149,0,0,1,3.01-.36,8.98,8.98,0,0,0,1.04-.15,0.9,0.9,0,0,0,.75-0.95,7.5,7.5,0,0,0-.02-1.06,17.2,17.2,0,0,1,0-5.77,3.649,3.649,0,0,0,.03-0.66c0.03-1.04.23-1.27-1.15-1.85a4.96,4.96,0,0,1-3.06-4.43,8.811,8.811,0,0,1,2.43-6.5c0.32-.37.7-0.68,1.03-1.03a3.661,3.661,0,0,1,2.34-1.11c4.15-.46,7.03,1.66,8.54,5.22a2.482,2.482,0,0,1,.17.9c0.02,0.92.03,1.85,0,2.77a4.745,4.745,0,0,1-.97,2.7,3.255,3.255,0,0,1-2.84,1.37c-2.09-.04-2.08,0-1.64,2a6.962,6.962,0,0,1,.14,1.44c0.01,1.89-.01,3.79,0,5.68,0,1.27.1,1.38,1.31,1.43a21.078,21.078,0,0,1,6.01,1.42,19.445,19.445,0,0,1,7.1,4.69,23.326,23.326,0,0,1,1.69,2.01c0.59,0.73.92,0.8,1.43,0.11,1.56-2.13,3.81-3.35,6.02-4.63a2.183,2.183,0,0,0,1.16-1.54c0.41-1.56.69-3.16,1.21-4.7a4.837,4.837,0,0,1,4.42-3.2c0.57,0.05,1.14.01,1.72,0.02a3.994,3.994,0,0,1,3.39,1.75,6.767,6.767,0,0,1,1.2,4.88,8.321,8.321,0,0,1-1.87,4.56,4.847,4.847,0,0,1-3.8,1.8,6.562,6.562,0,0,1-3.56-.76,0.812,0.812,0,0,0-1.14.21c-0.97.96-1.96,1.9-2.99,2.79a9.819,9.819,0,0,1-3.55,1.96c-1.09.34-1.11,0.45-.6,1.5a34.642,34.642,0,0,1,2.9,7.64c0.4,1.8.67,3.62,0.97,5.44a1.178,1.178,0,0,0,1.32,1.29c2.35,0.25,4.7.55,7.06,0.75,1.14,0.09,2.29.02,3.44,0.03a1.3,1.3,0,0,0,1.16-.74,6.416,6.416,0,0,1,3.13-2.52,7.056,7.056,0,0,1,4.28-.26,4.92,4.92,0,0,1,3.79,3.51,12.2,12.2,0,0,1,.67,4.4,6.925,6.925,0,0,1-5.88,6.5,8.572,8.572,0,0,1-3.39-.08,5.868,5.868,0,0,1-4.43-4.09c-0.07-.21-0.1-0.43-0.16-0.64-0.26-.78-0.27-0.77-1.12-0.83a36.941,36.941,0,0,1-6.79-.74c-0.56-.15-1.1-0.32-1.65-0.46-0.9-.22-1.11-0.07-1.17.84a35.666,35.666,0,0,1-2.4,11.17,28.187,28.187,0,0,1-4.91,8.09c-0.4.46-.78,0.95-1.18,1.42a0.7,0.7,0,0,0,.09,1.05c1.6,1.51,3.19,3.03,4.81,4.52,0.65,0.61.8,0.63,1.63,0.13a8.925,8.925,0,0,1,2.81-1.09,5.363,5.363,0,0,1,6.55,4.52,25.344,25.344,0,0,1,.27,2.75,6.22,6.22,0,0,1-4.34,5.98,11.756,11.756,0,0,1-2.71.48,21.6,21.6,0,0,0-2.88.22,3.321,3.321,0,0,1-2.69-.84,4.881,4.881,0,0,1-1.89-3.35,7.149,7.149,0,0,1,.16-3.5,1.162,1.162,0,0,0-.33-1.31,37.893,37.893,0,0,1-4.52-5.5c-0.54-.82-0.71-0.82-1.59-0.22a26.014,26.014,0,0,1-5.66,2.82,19.6,19.6,0,0,1-6.07,1.1c-1.14.05-2.29,0-3.43,0.02-0.82.02-.88,0.07-1.07,0.86-0.43,1.7-.85,3.41-1.22,5.13a14.291,14.291,0,0,0-.2,1.97,0.863,0.863,0,0,0,.54.83,5.911,5.911,0,0,1,3.02,5.62c0,0.44-.01.88,0,1.32a5.347,5.347,0,0,1-4.62,5.14,6.722,6.722,0,0,1-2.86.04,3.551,3.551,0,0,0-1.45.02,3.252,3.252,0,0,1-3.64-1.93,10.178,10.178,0,0,1-.51-5.97,5.863,5.863,0,0,1,3.07-3.94,6.454,6.454,0,0,1,.95-0.47,0.976,0.976,0,0,0,.64-1.03,25.8,25.8,0,0,1,1.22-6.45c0.09-.3.2-0.59,0.28-0.88a0.831,0.831,0,0,0-.66-1.19,24.849,24.849,0,0,1-3.25-1.1,26.592,26.592,0,0,1-7.62-4.91c-0.48-.45-1-0.85-1.5-1.28a0.83,0.83,0,0,0-.98-0.11c-1.47.7-2.94,1.39-4.43,2.07a0.824,0.824,0,0,0-.5,1.06,19.608,19.608,0,0,1,.43,2.85,5.268,5.268,0,0,1-1.82,4.35,3.445,3.445,0,0,1-1.72.92c-1.29.23-2.57,0.54-3.88,0.73a3.93,3.93,0,0,1-4.06-2.12,9.06,9.06,0,0,1-1.18-4.55,14.624,14.624,0,0,1,.27-3.67,5.471,5.471,0,0,1,5.07-3.91,6.135,6.135,0,0,1,3.32.64,1.2,1.2,0,0,0,1.25-.06c1.28-.68,2.58-1.31,3.89-1.93,0.8-.38.89-0.54,0.4-1.26a34.369,34.369,0,0,1-4.24-9.06,21.491,21.491,0,0,1-1.23-6.05c-0.02-.85-0.17-0.96-1.01-1.06-0.48-.06-0.95-0.15-1.43-0.21-1.22-.16-2.44-0.3-3.65-0.45C2417.22,1086.62,2417.22,1086.67,2417.21,1086.71Zm36.66-4.41a7.256,7.256,0,0,0-.41-2.12,3.824,3.824,0,0,0-3.59-2.22,1.981,1.981,0,0,0-2.18,1.8,4.781,4.781,0,0,0,.43,3.19,11.01,11.01,0,0,1,.72,1.41,2.739,2.739,0,0,0,2.91,1.57,1.532,1.532,0,0,0,1.6-1.13C2453.58,1083.97,2453.71,1083.1,2453.87,1082.3Zm-1.99,8.66c-2.62-.12-4.92-0.84-6.5-3.14a15.608,15.608,0,0,0-1.47-1.69,7.631,7.631,0,0,1-1.75-5.52,9.353,9.353,0,0,1,1.66-5.33,5.357,5.357,0,0,1,2.8-2.08,8.39,8.39,0,0,1,4.02-.28,10.916,10.916,0,0,1,4.29,1.55,8.409,8.409,0,0,1,4.03,7.16,11.91,11.91,0,0,1-1.61,6.57,5.552,5.552,0,0,1-4.81,2.75C2452.32,1090.96,2452.1,1090.96,2451.88,1090.96Zm16.92-10.86a5.942,5.942,0,0,1-1.09,4.27,3.283,3.283,0,0,1-1.1.9,1.478,1.478,0,0,1-2.09-.79,3.816,3.816,0,0,1-.35-2.56,12.664,12.664,0,0,0,.17-2.23,0.783,0.783,0,0,0-.77-0.89c-0.3-.04-0.6-0.1-0.9-0.17a3.441,3.441,0,0,1-2.58-2.86,4.7,4.7,0,0,1-.04-2.47,2.645,2.645,0,0,1,1.76-1.81,1.44,1.44,0,0,1,1.97,1.32c0.03,0.31,0,.62.01,0.93a1.143,1.143,0,0,0,1.25,1.35,5.447,5.447,0,0,1,1.4.29c1.62,0.68,2.15,2.1,2.36,3.7A6.85,6.85,0,0,1,2468.8,1080.1Zm-16.59,24.08c-0.17,0-.35.01-0.52,0a2.553,2.553,0,0,1-2.29-1.29,2.6,2.6,0,0,1,.23-2.85,14.992,14.992,0,0,1,1.22-1.54,1.878,1.878,0,0,1,2.16-.5,3.76,3.76,0,0,1,2.22,4.41,2.383,2.383,0,0,1-1.97,1.73,6.127,6.127,0,0,1-1.05.01v0.03Zm10.26-9.26a3.505,3.505,0,0,1,2.86,2.54,2.388,2.388,0,0,1-2.63,2.45,2.831,2.831,0,0,1-2.59-2.55A2.369,2.369,0,0,1,2462.47,1094.92Z" transform="translate(-2402.75 -1031.69)" fill='#E24256'/>
</svg>
