<svg xmlns="http://www.w3.org/2000/svg" width="84.094" height="116" viewBox="0 0 84.094 116">
  <defs>
    <style>
      .cls-1 {
        fill-rule: evenodd;
      }
    </style>
  </defs>
  <path id="_0401-nurse" data-name="0401-nurse" class="cls-1" d="M210.66,727.391a4.852,4.852,0,0,0-.6-0.786c-0.228-.213-0.656.1-0.815,0.632-0.18.605-.326,1.222-0.448,1.841a0.489,0.489,0,0,0,.235.375,0.538,0.538,0,0,0,.441,0A2,2,0,0,0,210.66,727.391Zm-23.943,29.2a0.677,0.677,0,0,0-.923-0.575c-1.171.541-2.312,1.15-3.491,1.674a1.926,1.926,0,0,0-1.314,2.077,9.2,9.2,0,0,1-1,5.16,3,3,0,0,0,.12,2.781,8.828,8.828,0,0,0,.877,1.447c1.123,1.629,2.328,1.967,4.19,1.273a2.25,2.25,0,0,0,1.562-1.964,5.4,5.4,0,0,0-.05-1.441,17.937,17.937,0,0,0-.462-2.374,7.042,7.042,0,0,1-.06-3.586c0.157-.7.128-1.443,0.216-2.163C186.475,758.106,186.61,757.315,186.717,756.592ZM175.593,786.43a1.667,1.667,0,0,0,.489-0.421,10.581,10.581,0,0,0-.147-2.157,10.1,10.1,0,0,1-.148-4.339,24.347,24.347,0,0,0,.323-4.827,8.26,8.26,0,0,1,.568-3.568,3.168,3.168,0,0,0,.065-2.57,7.182,7.182,0,0,1-.013-5.448,1.237,1.237,0,0,0,.054-0.237,0.475,0.475,0,0,0-.573-0.547,28.119,28.119,0,0,0-5.968,3.2,0.5,0.5,0,0,0,.045.831,7.36,7.36,0,0,1,2.41,2.349,1.6,1.6,0,0,1,.1,1.607,24.178,24.178,0,0,1-3.042,4.953A1.138,1.138,0,0,0,169.68,777c0.485,0.746,1.022,1.459,1.492,2.215,1.367,2.2,2.712,4.41,4.065,6.617C175.363,786.033,175.482,786.241,175.593,786.43Zm14.115-26.4a0.9,0.9,0,0,0-.348.3,3.736,3.736,0,0,0-.1,1.194c0.213,1.434.5,2.857,0.725,4.288,0.282,1.763.52,3.518-.465,5.183a4.423,4.423,0,0,0-.233,3.733,7.805,7.805,0,0,0,.415,1.135,10.2,10.2,0,0,1,.924,4.221c0.048,1.13.023,2.265,0.095,3.393a10.458,10.458,0,0,0,.343,1.891,0.944,0.944,0,0,0,.466.465,0.521,0.521,0,0,0,.386-0.229c0.548-.893,1.129-1.773,1.592-2.71,0.714-1.447,1.333-2.94,2.011-4.4,0.407-.88.867-1.735,1.273-2.616a1.073,1.073,0,0,0-.724-1.7c-0.91-.323-1.867-0.516-2.776-0.843a1.156,1.156,0,0,1-.555-0.7,1.754,1.754,0,0,1,.023-0.955,10.238,10.238,0,0,1,1.522-3.532,13.953,13.953,0,0,0,2.056-3.556,0.928,0.928,0,0,0-.318-1.075,0.986,0.986,0,0,0-.194-0.146q-2.94-1.668-5.885-3.329A0.531,0.531,0,0,0,189.708,760.029Zm-7.674-80a39.3,39.3,0,0,0-10.083.966,36.949,36.949,0,0,0-3.721,1.041,0.839,0.839,0,0,0-.537,1.171c0.3,1.089.591,2.182,0.933,3.258,1,3.156,2.062,6.293,3.026,9.459a45.448,45.448,0,0,0,2.462,6.052,2.885,2.885,0,0,0,1.347,1.347,14.99,14.99,0,0,0,1.562.658,19.846,19.846,0,0,0,8.854.782,24.97,24.97,0,0,0,2.63-.4,1.9,1.9,0,0,0,1.812-1.646c0.153-.948.605-1.843,0.824-2.785,1.261-5.428,2.714-10.806,4.256-16.16a5.33,5.33,0,0,0,.148-0.708,1.119,1.119,0,0,0-.647-1.185,4.175,4.175,0,0,0-.666-0.291,33.1,33.1,0,0,0-8.791-1.553C184.473,680.019,183.5,680.03,182.034,680.03Zm1.11,70.135c0.729,0,1.459,0,2.188,0a7.257,7.257,0,0,0,4.316-1.391c0.985-.71,2.034-1.33,3.026-2.032a27.136,27.136,0,0,0,6.025-5.593,48.631,48.631,0,0,0,6.748-11.757,31.708,31.708,0,0,0,1.85-6.278,0.849,0.849,0,0,0-1.125-1.079,10.764,10.764,0,0,1-3.129.325c-1.378.016-2.756,0-4.135-.01-0.486,0-.973-0.025-1.459-0.025-1.728,0-1.835.1-1.876,1.727-0.022.892-.04,1.783-0.04,2.675a6.639,6.639,0,0,1-.613,2.584,1.389,1.389,0,0,1-1.387.788,1.626,1.626,0,0,1-1.276-.606,5.829,5.829,0,0,1-1.462-3.52,12.537,12.537,0,0,1,.286-3.621,0.746,0.746,0,0,0-.565-0.937c-1.491-.362-2.982-0.739-4.492-1.011a39.413,39.413,0,0,1-8.863-2.461c-3.266-1.42-6.566-2.764-9.843-4.159a9.075,9.075,0,0,1-1.259-.731c-1.845-1.173-3.683-2.357-5.53-3.529a0.567,0.567,0,0,0-.892.442q-0.282,3.5-.531,7.01a3.582,3.582,0,0,0,.021.971c0.529,2.539.3,5.168,0.919,7.7,0.561,2.278.921,4.624,1.7,6.824a31.087,31.087,0,0,0,8.684,13.278,17.022,17.022,0,0,0,7.891,4.031A23,23,0,0,0,183.144,750.165Zm1.847-73.472c1.429,0,2.647-.042,3.861.008a35.964,35.964,0,0,1,6.945,1.012,5.565,5.565,0,0,1,1.355.519,4,4,0,0,1,2.128,4.48c-0.258,1.511-.517,3.022-0.755,4.537-0.12.772,0.343,1.108,1.208,0.96a29.8,29.8,0,0,1,6.972-.779,24.876,24.876,0,0,1,11.523,3.391,14.985,14.985,0,0,1,6.808,9.393,37.1,37.1,0,0,1,1.274,6.9,40.028,40.028,0,0,1-.456,7.439,29.749,29.749,0,0,1-2.1,7.7,68.084,68.084,0,0,0-2.333,8.669c-0.557,2.189-.841,4.447-1.353,6.649a5.384,5.384,0,0,0,.621,3.964,9.15,9.15,0,0,0,5.753,4.873,1.537,1.537,0,0,1,.656.3,1.839,1.839,0,0,1,.515.764,1.671,1.671,0,0,1,0,.958c-0.673,1.922-1.446,3.772-3.229,5a26.816,26.816,0,0,1-8.351,3.84,25.423,25.423,0,0,1-8.4,1.025,18.841,18.841,0,0,1-7.939-1.972,12.65,12.65,0,0,1-3.632-3.175,2.415,2.415,0,0,1-.448-1.1,1.463,1.463,0,0,1,2.052-1.758,12.493,12.493,0,0,1,1.535.727,19.134,19.134,0,0,0,7.418,2.127c0.8,0.06,1.6.266,2.4,0.348a23.625,23.625,0,0,0,5.539-.571,5.008,5.008,0,0,0,1.773-.768c1.463-.867,2.9-1.781,4.333-2.692a2.644,2.644,0,0,0,.509-0.51,0.8,0.8,0,0,0-.109-1.091,10.771,10.771,0,0,0-1.459-.853,6.65,6.65,0,0,1-4-6.407c-0.033-1.215,0-2.433-.032-3.648a25.752,25.752,0,0,1,.854-6.716,84.269,84.269,0,0,1,2.333-8.161,61.894,61.894,0,0,0,1.568-6.111c0.429-1.809.79-3.635,1.206-5.447a16.7,16.7,0,0,0-.222-8.4c-0.306-1.084-.725-2.133-1.016-3.231a6.243,6.243,0,0,0-1.733-2.89c-2.48-2.377-5.289-3.993-8.864-3.881-1.459.046-2.918,0.043-4.377,0.058a21.819,21.819,0,0,0-5.247.891,1.057,1.057,0,0,0-.235.064q-1.278.667-2.553,1.344c-0.219.689-.468,1.37-0.649,2.068-0.265,1.018-.514,2.043-0.712,3.075a20.787,20.787,0,0,1-2.127,5.4,4.1,4.1,0,0,1-2.5,2.16,16.766,16.766,0,0,1-5.452,1.087,14.173,14.173,0,0,0-1.458.02,28.293,28.293,0,0,1-10.743-1.581,4.534,4.534,0,0,1-2.356-1.644,11.519,11.519,0,0,1-2.1-3.8c-0.583-2.189-1.254-4.354-1.891-6.529-0.136-.466-0.276-0.932-0.429-1.393-0.555-1.667-.78-1.81-2.443-1.382-1.175.3-2.341,0.643-3.5,1.011a16.1,16.1,0,0,0-9.163,7.551,20.5,20.5,0,0,0-3.006,9.148,25.445,25.445,0,0,0-.361,3.854c0.17,1.932.21,3.887,0.547,5.789a11.033,11.033,0,0,0,2.566,5.44c1.612,1.811,3.424,3.447,5.161,5.148a1.094,1.094,0,0,0,.447.136c0.054-.2.117-0.4,0.155-0.611a0.548,0.548,0,0,0-.053-0.236c-1-3.253-1.618-6.595-2.3-9.923a3.776,3.776,0,0,1-.123-0.717c-0.021-3.241-.055-6.483-0.031-9.725a2.8,2.8,0,0,1,1.363-2.439,4.973,4.973,0,0,0,1.011-1.017,2.559,2.559,0,0,1,3.434-.568c0.806,0.539,1.554,1.165,2.338,1.738a43.952,43.952,0,0,0,9.383,5.534c4.055,1.642,8.1,3.288,12.262,4.647a77.335,77.335,0,0,0,11.317,2.7,45.386,45.386,0,0,0,5.065.491,22.406,22.406,0,0,0,2.9-.18c0.887-.069,1.773-0.163,2.66-0.227a1.655,1.655,0,0,0,1.822-1.553,22.341,22.341,0,0,1,.536-2.367,0.959,0.959,0,0,1,.81-0.781,1.038,1.038,0,0,1,.754.857,4.521,4.521,0,0,1,.2,1.191,2.223,2.223,0,0,0,.587,1.78,0.811,0.811,0,0,1,0,.636c-0.191.612-.431,1.209-0.643,1.815-0.4,1.152-.43,2.114.809,2.907a4.335,4.335,0,0,1,1.558,2.687,3.885,3.885,0,0,1-.951,3.835,6.542,6.542,0,0,1-3.54,2,2.586,2.586,0,0,0-1.947,1.594,57.689,57.689,0,0,1-2.947,5.306,65.969,65.969,0,0,1-4.053,5.446,20.527,20.527,0,0,1-4.627,3.9c-1.545,1.04-3.105,2.06-4.7,3.027a2.085,2.085,0,0,0-1.048,1.519,11,11,0,0,0-.366,3.122,0.942,0.942,0,0,0,.865.987,29.65,29.65,0,0,1,6.83,2.438,21.563,21.563,0,0,1,2.442,1.569,2.685,2.685,0,0,1,1.234,3.535c-0.279.751-.124,1,0.666,1.254a13.93,13.93,0,0,1,8.019,7,19.517,19.517,0,0,1,2.349,5.041c0.67,2.925,1.345,5.832.567,8.861-0.279,1.087-.322,2.233-0.512,3.345a0.945,0.945,0,0,1-.675.909,1.01,1.01,0,0,1-1.04-.818c-0.13-.464-0.19-0.948-0.286-1.422a9.654,9.654,0,0,0-.209-0.946c-0.84-2.709-1.149-5.534-1.782-8.28a17.453,17.453,0,0,0-6.68-10.66c-2.049-1.5-1.967-.963-3.049.614a4.353,4.353,0,0,0-.247.417,0.764,0.764,0,0,0,.408,1,5.606,5.606,0,0,0,.686.235c0.312,0.082.644,0.106,0.945,0.214a2.1,2.1,0,0,1,1.383,3.081c-0.6,1.5-1.3,2.966-1.942,4.452-1.608,3.716-3.175,7.451-5.03,11.055-0.222.433-.419,0.88-0.663,1.3-0.68,1.167-.946,1.189-2.394.93a2.025,2.025,0,0,1-1.83-1.922c-0.439-2.791-.935-5.573-1.348-8.368-0.142-.957-0.071-1.943-0.156-2.911-0.12-1.367-.277-2.733-0.459-4.094a0.862,0.862,0,0,0-.851-0.733,18.529,18.529,0,0,0-1.943-.048,6.647,6.647,0,0,1-3.945-.989,4,4,0,0,0-.66-0.306,0.61,0.61,0,0,0-.842.57c-0.032.322-.053,0.646-0.055,0.97-0.01,1.783-.1,3.572,0,5.349s0.369,3.534.623,5.292c0.183,1.277.483,2.538,0.689,3.813a7.2,7.2,0,0,1,.039,1.454,1.252,1.252,0,0,1-.929,1.272c-0.311.094-.619,0.2-0.92,0.316a1.468,1.468,0,0,1-1.776-.357,16.68,16.68,0,0,1-1.694-2.053c-1.35-2.115-2.628-4.277-3.938-6.418q-1.521-2.486-3.052-4.963c-0.256-.413-0.547-0.8-0.8-1.217a1.419,1.419,0,0,1,.041-1.608c0.944-1.412,1.923-2.8,2.855-4.221a13.973,13.973,0,0,0,1.03-1.9,0.7,0.7,0,0,0-.266-0.6,0.725,0.725,0,0,0-.639.006,1.281,1.281,0,0,0-.447.557,2.3,2.3,0,0,1-1.478,1.157c-0.687.234-1.333,0.586-2,.888a9.614,9.614,0,0,0-3.832,3.286,17.2,17.2,0,0,0-3.017,6.581,28.338,28.338,0,0,1-3.265,8.334,1,1,0,0,1-1.14.682,1.4,1.4,0,0,1-1.323-1.219c-0.068-2.906-.26-5.783.706-8.655a28.374,28.374,0,0,1,4.478-8,3.734,3.734,0,0,1,.852-0.863c2.141-1.444,4.1-3.187,6.591-4.066a5.5,5.5,0,0,0,.877-0.416,0.644,0.644,0,0,0,.331-0.816c-0.695-2.12.477-3.439,2.062-4.433a35,35,0,0,1,6.334-3.046,11.393,11.393,0,0,0,1.367-.5,1.1,1.1,0,0,0,.584-0.684,34.11,34.11,0,0,0-.033-3.632,1.544,1.544,0,0,0-1-1.289c-0.371-.16-0.762-0.27-1.146-0.4A22.255,22.255,0,0,1,164.9,744.7a36.765,36.765,0,0,1-4.81-8.121,10.489,10.489,0,0,0-.662-1.3,0.8,0.8,0,0,0-.53-0.4,0.612,0.612,0,0,0-.331.783c0.064,0.479.216,0.948,0.262,1.428a22.2,22.2,0,0,1-.165,7.719,10.441,10.441,0,0,1-4.346,6.493,5.776,5.776,0,0,0-.732.634,0.528,0.528,0,0,0,.118.826,4.292,4.292,0,0,0,.627.364,16.863,16.863,0,0,0,6.113,1.417c0.811,0.009,1.623-.02,2.432.019a14.016,14.016,0,0,0,6.183-1,18.817,18.817,0,0,1,3.327-.638,2.237,2.237,0,0,1,2.442,1.171,0.7,0.7,0,0,1-.085.895,3.857,3.857,0,0,1-.893.806,16.639,16.639,0,0,1-8.5,2.556c-1.621.009-3.249,0.071-4.863-.041a44.524,44.524,0,0,1-7.634-1.306,11.15,11.15,0,0,1-5.075-3.186,1.875,1.875,0,0,1,0-2.26,6,6,0,0,1,1.436-1.282,8.435,8.435,0,0,0,3.122-3.63,16.236,16.236,0,0,0,1.906-8.424,13.161,13.161,0,0,0-.234-1.677,2.875,2.875,0,0,0-1.121-1.8,14.108,14.108,0,0,1-4.029-5.11c-0.988-2.041-1.923-4.107-2.926-6.141-1.094-2.217-1.287-4.664-1.888-7.007a19.927,19.927,0,0,1-.442-5.791,23.516,23.516,0,0,1,10.687-18.666c3.141-1.853,6.388-3.511,10.147-3.743a0.947,0.947,0,0,0,1-1.113c-0.028-.562-0.152-1.119-0.2-1.68-0.1-1.207-.2-2.414-0.275-3.622a2.24,2.24,0,0,1,1.462-2.3,19.888,19.888,0,0,1,3.15-1.257,26.9,26.9,0,0,1,7.652-1.179,2.637,2.637,0,0,0,.728-0.028C180.34,676.505,182.784,676.8,184.991,676.693Zm-13.322,49.1a7.819,7.819,0,0,1-.5,3.379,1.215,1.215,0,0,1-1.965.578,5.8,5.8,0,0,1-1.166-1.219c-0.911-1.378-.918-4.9-0.069-6.333a1.753,1.753,0,0,1,2.871-.088A5.711,5.711,0,0,1,171.669,725.8Zm10.684,17.023a5.127,5.127,0,0,1-4.8-2.261,2.486,2.486,0,0,1-.418-1.1,1.017,1.017,0,0,1,1.495-1.159c0.878,0.4,1.734.856,2.607,1.27a2.17,2.17,0,0,0,1.64.147c0.691-.215,1.407-0.347,2.106-0.539a1.336,1.336,0,0,1,1.544.341,1.647,1.647,0,0,1-.17,2.011,3.738,3.738,0,0,1-2.313,1.2C183.485,742.8,182.917,742.79,182.353,742.818ZM182.5,734.1a14.474,14.474,0,0,1-1.831-.171,4.708,4.708,0,0,1-1.3-.555,1.073,1.073,0,0,1-.458-1.247,1.186,1.186,0,0,1,1.127-.758,14.163,14.163,0,0,1,4.165,1.006,1.29,1.29,0,0,1,.514.731,0.827,0.827,0,0,1-.711.829C183.448,734.016,182.891,734.055,182.5,734.1Zm-6.373-42.236c0-.162-0.007-0.324,0-0.486a1.322,1.322,0,0,1,1.148-1.353c0.631-.125,1.285-0.135,1.921-0.241a0.913,0.913,0,0,0,.78-0.813c0.071-.479.055-0.971,0.138-1.447a1.324,1.324,0,0,1,1.627-1.065,2.275,2.275,0,0,1,1.868,1.365,4.44,4.44,0,0,0,.328.9,1.332,1.332,0,0,0,.735.53c0.551,0.1,1.144,0,1.687.125a6.644,6.644,0,0,1,1.78.693,1.678,1.678,0,0,1,.429,2.17,2.294,2.294,0,0,1-1.18.754,13.009,13.009,0,0,1-1.927.18,1.048,1.048,0,0,0-1.112,1.271c-0.012.566,0.036,1.135,0,1.7a1.95,1.95,0,0,1-1.747,1.725,2.034,2.034,0,0,1-2-1.414c-0.1-.472-0.116-0.963-0.22-1.434a1.13,1.13,0,0,0-1.064-.843c-0.645-.039-1.294-0.013-1.937-0.069a1.268,1.268,0,0,1-1.212-1.28c-0.031-.321,0-0.647,0-0.97h-0.037Z" transform="translate(-143.594 -676.688)"/>
</svg>
