<svg xmlns="http://www.w3.org/2000/svg" width="99.938" height="93" viewBox="0 0 99.938 93">
  <defs>
    <style>
      .cls-1 {
        fill-rule: evenodd;
      }
    </style>
  </defs>
  <path id="robot" class="cls-1" d="M779.359,3567.96c-0.675.17-2.049-.36-2.258,0.28-6.906.04-13.252-.49-20.326-0.28-1.525.45-3.947,0-4.8,1.13-0.792-.29.08-1.2,0-1.7v-6.77c-0.129-2.89-.425-5.6-0.282-8.76a28.169,28.169,0,0,1-.282-5.64c5.5-.06,9.77-1.34,15.245-1.41,5.546,0.08,10.874-.05,16.1-0.29a2.171,2.171,0,0,0,.848-0.28c4.529,0.27,10.3-.7,13.549.85-1.552,6.14-.631,14.69-0.563,21.74a56.062,56.062,0,0,0-9.6.85c-2-.22-3.226.35-5.085,0.28h-2.54Zm0.282,4.8c-0.842-.41-1.72.99-1.692-0.28h3.669a22.778,22.778,0,0,0,.281,4.8C779.1,3577.81,780.44,3574.22,779.641,3572.76Zm-41.219,11.29h-0.566v-0.56h0.566v0.56Zm85.548,22.59v-9.88c-0.434-1.55-.249-3.71-0.282-5.65-0.468-.29-0.309-1.2-0.567-1.69-1.548-2.96-5.971-3.84-9.316-2.83a14.508,14.508,0,0,1-2.258.28c0.295-2.07-.533-3.92,0-5.36-0.707-.71-0.533-2.29-0.847-3.39-2.536-.85-6.1-0.67-8.752-1.41-6.588-.3-11.2.58-16.941,0.57-0.03-1.76-.471-3.11-0.282-5.09,1.689-.28,3.673-0.28,5.363-0.56,1.233,0.2,1.59-.48,2.824-0.28,0.86-.18,2.434.36,2.826-0.29,0.955,0.64,1.369,1.83,3.385,1.42,0.257-.5,1.038-0.47,1.128-1.13,0.347-.51.055-1.65,0.567-1.98v-21.18c0.315-1.85,1.276-3.05,1.13-5.36-1.064-1.95-4.071-1.95-5.929-3.11a5.187,5.187,0,0,1-2.258-.28c-11.634-.06-22.232.92-33.036,1.69,0.429-2.12-1.317-2.06-1.976-3.1,0.51-1.46,2.049-1.9,1.976-3.95-0.039-.81-1.178-0.52-1.976-0.57-0.318-.53-1.094-0.6-1.412-1.13,0.8-.98,2.113-1.46,3.1-2.26,0.944-.68,1.108-2.92.567-4.23-3.222-1.2-7.061.47-5.648,3.95-1.468.32-3.086,0.49-2.822,2.54,0.066,1.16,1.176,1.27,2.26,1.42,0.413,0.9,2.031.59,2.821,1.12-0.6,1.76-3.192,1.52-3.387,3.67a2.615,2.615,0,0,0,.847,1.98c0.243,0.35,1.816.78,1.129,1.13-2.6.97-6.249,0.9-9.036,1.69-1.393,2.84-.882,7.59-1.409,11.3v9.32c-0.228,2.39-.858,5.47,0,7.34,0.722,0.29,1.943,1.01,2.822.28a6.868,6.868,0,0,0,2.824.85h14.116c0.008,1.77.555,3.02,0.567,4.8a65,65,0,0,1-7.91-.29c-7.016.61-12.593,2.65-20.044,2.83-0.047.32-.445,0.3-0.849,0.28-0.536.97-2.075,0.93-2.54,1.98-0.289,2.4,1.249,4.33.85,5.92a6.7,6.7,0,0,0-3.109-.56,10.935,10.935,0,0,0-6.775,4.23,41.665,41.665,0,0,0-1.694,13.56c0.526,0.69.29,2.15,0.848,2.82,0.16,0.5-.343,1.66.283,1.69,0.163,0.5-.343,1.66.282,1.7,0.434,2.2.343,4.92,2.539,5.36,3.011-.12,2.128-3.39,1.415-5.36-0.39-2.53-.841-5-1.415-7.34a30.491,30.491,0,0,1,1.415-11.3c1.721-1.38,4.272-1.94,7.057-2.26,0.539,4.08,1.455,7.77,1.977,11.86a51.31,51.31,0,0,0,1.127,12.43c0.281,0.94,1.469.97,1.7,1.97a1.73,1.73,0,0,0,1.975,1.7c1.361-.05,1.857-0.97,1.979-2.26v-4.52a14.039,14.039,0,0,1-.85-3.11,128.422,128.422,0,0,0-1.976-21.74c4.695-.95,8.462-2.83,13.269-3.67,4.658-1.08,10.525-.96,15.531-1.69,9.9-.31,18.689-0.67,28.8-0.28,2.157,0.95,5.284.92,7.906,1.41,0.8,8.24-.237,18.3.563,26.54v4.8c0.4,1.29.373,3.01,1.978,3.1,1.706-.74,1.37-3.52,1.414-5.93v-22.02c3.236,0.16,7.5-.72,8.469,1.7v17.78c-0.287,1.59-.944,5.03,1.13,5.09,1.711,0.11,2.41-.79,2.258-2.55A21.036,21.036,0,0,0,823.97,3606.64Zm-38.681-52.52c0.558-1.77,2.621-5.7,3.954-2.54A2.85,2.85,0,0,1,785.289,3554.12Zm6.775-4.8a0.424,0.424,0,0,1-.28-0.56c-0.292-.74-1.121-0.95-1.414-1.7-3.66-1.62-7.1.44-7.621,3.68,0.1,2.06.153,4.17,1.129,5.36C788.685,3557.99,792.371,3554.38,792.064,3549.32Zm-28.8,6.22a4.676,4.676,0,0,1-3.67-.57c0.253-1.16,1.06-1.76,1.129-3.11a3.987,3.987,0,0,1,2.823-.56C763.865,3552.57,764.107,3554.66,763.266,3555.54Zm3.107-5.37c-0.812-1.65-3.378-2.75-5.932-2.26a8.661,8.661,0,0,0-2.54,1.41,0.772,0.772,0,0,1-.564.85c0.045,1.74-.608,2.78-0.562,4.52,0.415,0.05.255,0.68,0.281,1.13a0.762,0.762,0,0,1,.563.84,7.982,7.982,0,0,0,3.389,1.41,8.138,8.138,0,0,0,3.671-.84C765.955,3555.59,766.577,3553.29,766.373,3550.17Zm15.245,12.99a3.653,3.653,0,0,1-3.106.28v-2.26h3.106v1.98Zm-6.21.28h-1.7c0.228-.98-0.418-1.09-0.28-1.98,0.365-.39,1.225-0.28,1.977-0.28v2.26Zm-4.517,0c-0.558.46-2.055,0.91-2.826,0.28,0.1-1.59,1.394-1.99,2.826-2.26v1.98Zm12.139-4.52c-2-.61-4.324.43-6.5-0.28-2.057,1.11-4.154.49-7.057,0.56-0.6.53-1.877,0.39-2.259,1.13a4.33,4.33,0,0,0-1.694,1.98,6.947,6.947,0,0,0,.567,3.67c1.718,1.4,5.058.68,7.339,0.28,3.728-.03,7.837.31,9.88-1.41C784.488,3563.59,784.559,3559.83,783.03,3558.92Zm-18.071,36.42c-1-.24-1.689.82-1.974-0.28-0.426-.42-1.19-0.5-1.411-1.13-1.35-.14-2.424-1.78-3.955-0.84a2.9,2.9,0,0,0,.563,1.97c0.315,0.19,1.466.94,0.85,1.13a22.3,22.3,0,0,1-6.774.57,8.14,8.14,0,0,1,.562-3.67c1.546-1.75,3.887-2.71,5.929-3.96h4.8C764.766,3590.46,765.172,3592.59,764.959,3595.34Zm-0.28-9.31h-4.8a29.421,29.421,0,0,0-8.755,5.08,5.394,5.394,0,0,1-1.124,1.98c-0.051.42,0.1,1.04-.286,1.12,0.324,1.91-.538,3.87,0,5.09,1.528,0.88,4.431-.03,7.062.28a88.694,88.694,0,0,1,11.29-1.7C769.087,3592.9,767.93,3587.68,764.679,3586.03Zm38.116,4.8c-0.734.17-1.016-.12-0.847-0.85C802.212,3590.28,802.988,3590.07,802.8,3590.83Zm2.26-1.98c-0.876-1.27-3.72-2.36-5.366-1.13-0.877.99-.88,2.42-0.566,3.95,0.752,1.28,3.635,1.44,5.365.85A6.947,6.947,0,0,0,805.055,3588.85Zm-13.271,2.26a1.779,1.779,0,0,1,1.977,0C793.916,3591.79,791.552,3592.13,791.784,3591.11Zm5.081-1.41c-1.216-2.21-6.115-3.16-7.9-.85-0.392,1.82-.494,4.24.563,5.36,1.181,0.7,3.174.6,5.081,0.57A4.874,4.874,0,0,0,796.865,3589.7Zm-14.966,1.41v-0.85c0.363-.39,1.689-0.49,1.7.28C783.676,3591.45,782.359,3591.57,781.9,3591.11Zm3.39-2.54c-2.621-2.06-6.644.04-6.777,3.1,0.476,1.17.464,2.2,1.413,2.83,0.037,0.02.626,0.3,0.565,0.28,2.114,0.63,5.329-.77,5.647-3.11A5.357,5.357,0,0,0,785.289,3588.57Zm32.751,3.1c-1.825-.98-3.782.11-3.106,2.54,0.622,0.32.939,0.95,1.7,1.13a11.432,11.432,0,0,0,1.692-1.13C818.264,3593.33,818.512,3592.14,818.04,3591.67Zm-84.419,2.26c-2.109-1.21-3.083,1.99-2.26,3.67,0.894,0.39.944,0.06,1.978,0C734.327,3596.64,734.191,3595.23,733.621,3593.93Zm44.328,11.3c-0.619.6-2.315,0.13-2.823,0.84a11.546,11.546,0,0,0-3.39.29c-2.53.01-4.485,0.59-7.057,0.56a65.174,65.174,0,0,1-6.778.56c-1.42-.19-1.967.48-3.384,0.29-1.322,0-2.3.34-2.259,1.69,0.937,1.33,3.336.85,5.361,0.85h6.213a60.032,60.032,0,0,1,9.036-.85c0.209-.64,1.582-0.11,2.258-0.28,0.333-.51,1.47-0.22,1.975-0.57,1.293-.4,3.014-0.37,3.107-1.97C780.031,3605.59,779.335,3605.06,777.949,3605.23Zm14.679,3.38c-1.2-2.59-4.28-.63-3.952,2.26a2.166,2.166,0,0,0,2.259,1.13Q792.821,3611.34,792.628,3608.61Zm-25.692,3.96c-1.815.16-3.309,0.64-5.082,0.84h-3.388c-1,.42-2.642.19-3.387,0.85a31.9,31.9,0,0,0,4.517.85h6.777c1.818-.73,5.237.15,5.081-2.54C770.549,3611.19,768.246,3612.54,766.936,3612.57Z" transform="translate(-724.031 -3525.5)" fill="#1CABE2"/>
</svg>
