<svg xmlns="http://www.w3.org/2000/svg" width="89.969" height="90.76" viewBox="0 0 89.969 90.76">
  <defs>
    <style>
      .cls-1 {
        fill-rule: evenodd;
      }
    </style>
  </defs>
  <path id="star" class="cls-1" d="M428.375,1590.72a9.743,9.743,0,0,1-3.806,3.72,44.961,44.961,0,0,0-8.512,5.49c-2.13,1.69-3.667,3.94-5.37,6.04a1.818,1.818,0,0,0-.215,1.27q1.077,7.53,2.753,14.96a24.527,24.527,0,0,0,1.352,3.46c0.537,1.36,1.117,2.71,1.575,4.1a9.372,9.372,0,0,1,.362,2.32,1.224,1.224,0,0,1-.466.78,0.723,0.723,0,0,1-.587-0.19,7.08,7.08,0,0,0-1.373-1.46c-2.879-1.39-5.035-3.75-7.586-5.58-2.567-1.83-4.978-3.89-7.435-5.88a6.953,6.953,0,0,0-3.221-1.75,6.057,6.057,0,0,1-2.042-1.11,3.529,3.529,0,0,0-3.534-.33,20.191,20.191,0,0,0-5.932,3.83c-2.845,2.57-5.561,5.29-8.362,7.91-1.314,1.24-2.69,2.4-4.056,3.57a0.854,0.854,0,0,1-.58.05,0.371,0.371,0,0,1-.153-0.28,12.259,12.259,0,0,1,.109-2.02,34.714,34.714,0,0,1,.893-3.61,63.707,63.707,0,0,0,2.323-13.3c0.159-1.79.389-3.58,0.551-5.38a5.24,5.24,0,0,0-1.88-4.51,5.561,5.561,0,0,0-.507-0.45c-3.33-2.36-6.044-5.42-9.2-7.97a11.155,11.155,0,0,0-2.3-1.35,3.07,3.07,0,0,1-1.715-1.53c-0.125-.32-0.285-0.62-0.431-0.92a4.616,4.616,0,0,1,1.177-.44c2.7-.15,5.4-0.26,8.892-0.41a10.581,10.581,0,0,0,1.216.17c1.8,0.15,3.594.34,5.393,0.36a4.464,4.464,0,0,0,4.654-3.21,3.587,3.587,0,0,1,.722-1.48,12.734,12.734,0,0,0,2.541-3.96c2.279-4.42,3.775-9.17,5.717-13.74,0.928-2.18,1.956-4.31,2.975-6.44a2.374,2.374,0,0,1,.75-0.63,9.042,9.042,0,0,1,.432.83c1.156,2.82,2.233,5.67,3.464,8.45a70.107,70.107,0,0,1,4.394,11.7,3.732,3.732,0,0,0,3.391,3.21c1.65,0.25,3.048,1.43,4.811,1.45,1,0.02,2,.28,3,0.33a54.908,54.908,0,0,1,8.773.61,19,19,0,0,0,3.379.06c1.013,0.03,2.029.07,3.04,0.16a1.132,1.132,0,0,1,1.016,1.15A4.473,4.473,0,0,1,428.375,1590.72Zm7.358-7.39a12.371,12.371,0,0,0-4-.5c-3.6-.23-7.233-0.3-10.787-0.85a50.642,50.642,0,0,0-7.051-.67c-1.461-.02-2.917-0.25-4.374-0.39a1.329,1.329,0,0,1-1.238-.97c-0.136-.43-0.344-0.83-0.471-1.27-2.76-9.4-7.963-17.66-12.4-26.28a1.34,1.34,0,0,0-1.373-.78c-0.79.05-1.577,0.11-2.365,0.2a1.942,1.942,0,0,0-1.619,1.06c-0.794,1.49-1.685,2.93-2.407,4.46a99.664,99.664,0,0,0-5.752,13.7c-0.719,2.36-1.684,4.66-2.634,6.95-0.645,1.56-1.457,3.04-2.194,4.56l-5.519,1.53c-0.107.02-.224,0.03-0.336,0.04-3.49.24-6.976,0.53-10.471,0.7a59.469,59.469,0,0,0-9.424.79,13.423,13.423,0,0,0-2.25.68,1.743,1.743,0,0,0-1.058,1.61,3.482,3.482,0,0,0,2.246,3.77,17.811,17.811,0,0,1,4.05,2.38,47.168,47.168,0,0,1,6.713,6.66,13.536,13.536,0,0,0,1.663,1.68c1.728,1.45,3.466,2.89,5.254,4.26a2.668,2.668,0,0,1,1.13,2.64c-0.055.45-.027,0.91-0.117,1.35-0.919,4.41-1.678,8.86-2.832,13.21a50.55,50.55,0,0,0-1.86,11.66,33.93,33.93,0,0,0,.022,3.72,3.479,3.479,0,0,0,5,2.82,22.766,22.766,0,0,0,2.672-1.44,50.489,50.489,0,0,0,7.878-6.37q4.077-3.825,8.261-7.52a18.089,18.089,0,0,1,2.99-2.22c3.806-2.15,2.87-2.07,5.662.48,0.5,0.45.961,0.96,1.479,1.39,2.069,1.75,4.177,3.45,6.23,5.22s3.977,3.67,6.6,4.6a2.058,2.058,0,0,1,.272.2q3.765,2.265,7.529,4.52a7.105,7.105,0,0,0,3.859,1.09,1.133,1.133,0,0,0,1.292-1.19,34.733,34.733,0,0,0-.6-5.01,127.37,127.37,0,0,0-2.8-13.9c-1.168-4.46-1.716-9.09-3.431-13.41a1.075,1.075,0,0,1,.256-0.9,9.366,9.366,0,0,1,1.3-1.08,122.872,122.872,0,0,0,16.962-15.01,8.643,8.643,0,0,0,2.266-4.45A3.394,3.394,0,0,0,435.733,1583.33Z" transform="translate(-348 -1551.62)" fill="#ffffff" />
</svg>
