<?xml version="1.0" encoding="utf-8"?>
<!-- Generator: Adobe Illustrator 23.0.6, SVG Export Plug-In . SVG Version: 6.00 Build 0)  -->
<svg version="1.1" id="Layer_1" xmlns="http://www.w3.org/2000/svg" xmlns:xlink="http://www.w3.org/1999/xlink" x="0px" y="0px"
	 width="122px" height="126px" viewBox="0 0 122 126" style="enable-background:new 0 0 122 126;" xml:space="preserve">
<g id="_x0A_0408-stethoscope_x0A__2_">
	<g>
		<path d="M114.35,29.8c-0.36-2.1-1.8-3.51-3.4-4.76c-1.04-0.81-2.2-1.29-3.55-1.13c-1.03,0.12-2.07,0.39-3.08,0.3
			c-2.33-0.22-4.01,1-5.5,2.43c-1.13,1.09-2.04,2.47-2.02,4.21c0.01,1.24-0.53,2.14-1.74,2.6c-0.3,0.11-0.58,0.27-0.85,0.44
			c-1.34,0.87-2.56,1.84-3.59,3.11c-1.78,2.21-2.98,4.73-4.15,7.27c-0.6,1.3-1.14,2.65-1.51,4.04c-1,3.71-1.81,7.45-1.51,11.34
			c0.09,1.11,0.06,2.24,0.13,3.35c0.06,1.03,0.22,2.06,0.28,3.09c0.09,1.75,0.06,3.5,0.44,5.24c0.32,1.47,0.44,3,0.51,4.51
			c0.11,2.16,0.09,4.32,0.12,6.48c0.03,2.24-0.03,4.47-0.71,6.64c-0.26,0.83-0.29,1.74-0.6,2.55c-0.6,1.56-1.32,3.08-2,4.62
			c-0.13,0.29-0.28,0.58-0.48,0.82c-1.2,1.39-1.92,3.14-3.27,4.42c-2.2,3.37-5.64,5.1-9.06,6.86c-0.14,0.07-0.3,0.13-0.45,0.15
			c-1.32,0.14-2.41,0.82-3.48,1.53c-0.82,0.54-1.71,0.78-2.66,1c-2.06,0.49-4.12,0.42-6.2,0.41c-2.9-0.02-5.48-0.95-7.78-2.69
			c-0.38-0.29-0.75-0.63-1.18-0.82c-1.36-0.61-2.36-1.64-3.28-2.75c-1.53-1.86-2.82-3.87-3.79-6.08c-0.19-0.43-0.37-0.91-0.37-1.37
			c-0.01-2.71-0.17-5.42,0.33-8.12c0.39-2.11,0.77-4.24,0.69-6.42c-0.04-1.11-0.16-2.29,0.12-3.34c0.28-1.05,1.04-1.96,1.53-2.96
			c0.31-0.62,0.78-0.91,1.4-1.19c2.03-0.93,4.14-1.79,5.99-3.02c3.36-2.22,6.01-5.23,8.66-8.23c1.45-1.63,2.3-3.64,3.44-5.47
			c0.92-1.48,1.85-3.03,2.39-4.67c0.91-2.73,2.04-5.38,3.11-8.04c1.6-3.95,2.47-8.08,3.47-12.18c0.17-0.69,0.2-1.42,0.29-2.13
			c0.24-1.89,0.6-3.78,0.7-5.69c0.14-2.63,0.04-5.28,0.11-7.92c0.04-1.47-0.52-2.82-0.73-4.23c-0.06-0.37-0.33-0.73-0.57-1.04
			c-0.4-0.5-0.86-0.94-1.28-1.43c-0.84-0.97-1.8-1.24-2.99-0.66c-0.57,0.27-1.19,0.55-1.8,0.59c-1.51,0.09-3.04,0.06-4.56,0.06
			c-0.53,0-0.9-0.28-1.13-0.75c-0.14-0.29-0.28-0.57-0.43-0.86c-0.35-0.66-0.88-1.12-1.56-1.43c-0.71-0.33-1.49-0.25-1.96,0.35
			c-0.96,1.22-1.64,2.65-1.47,4.19c0.12,1.13,0.1,2.18-0.03,3.31c-0.18,1.48,0.29,2.85,1.57,3.8c0.84,0.63,2.09,0.56,2.87-0.14
			c0.55-0.48,1-1.03,1.16-1.77c0.14-0.62,0.29-1.24,0.45-1.86c0.16-0.59,0.53-1.04,1.15-1.05c1.2-0.02,2.4-0.01,3.59,0.1
			c0.78,0.07,1.28,0.64,1.42,1.43c0.08,0.47,0.1,0.95,0.1,1.43c0.01,1.92,0,3.84,0,5.76c-0.02,0-0.03,0-0.05,0
			c0,1.76-0.01,3.52,0,5.28c0.01,0.96-0.11,1.9-0.34,2.84c-0.53,2.09-1.02,4.19-1.44,6.3c-0.7,3.55-1.85,6.94-3.53,10.14
			c-0.89,1.7-1.99,3.3-2.73,5.06c-0.9,2.16-2.48,3.7-4.12,5.21c-0.53,0.49-1.17,0.85-1.7,1.33c-1.69,1.53-3.67,2.55-5.78,3.32
			c-1.58,0.57-3.29,0.48-4.94,0.73c-0.29,0.04-0.61-0.15-0.92-0.23c-0.93-0.22-1.86-0.46-2.8-0.63c-1.96-0.37-3.93-0.65-5.88-1.06
			c-1.35-0.28-2.53-0.92-3.56-1.88c-2.23-2.09-4.04-4.52-5.72-7.06c-0.89-1.34-1.64-2.75-2.16-4.26c-0.81-2.34-1.6-4.69-2.38-7.04
			c-0.67-2.05-1.26-4.16-1.39-6.3c-0.18-3.19-0.09-6.39,0.02-9.59c0.03-0.87,0.03-1.71-0.02-2.59c-0.12-2.31-0.06-4.63-0.04-6.95
			c0-0.43,0.27-0.77,0.71-0.84c1.1-0.17,2.21-0.3,3.32-0.43c0.53-0.06,1.08,0.33,1.24,0.92c0.21,0.77,0.34,1.56,0.58,2.33
			c0.37,1.17,2.01,1.7,2.96,0.99c0.91-0.69,1.66-1.51,2.01-2.63c0.78-2.48,0.81-5.04,0.6-7.6c-0.08-0.96-1.13-2-2.02-2.14
			c-1.06-0.17-2.09-0.05-3,0.55c-0.97,0.64-1.73,1.42-1.6,2.73c0.13,1.42-0.51,1.86-1.83,1.88c-0.32,0.01-0.64,0-0.96,0.02
			c-0.77,0.06-1.34-0.1-1.81-0.85c-0.52-0.83-1.38-0.95-2.33-0.61c-0.63,0.23-1.14,0.57-1.56,1.06c-0.58,0.68-0.95,1.46-1.12,2.35
			c-0.45,2.35-0.98,4.68-0.96,7.1c0.01,0.64,0.04,1.3-0.11,1.91c-0.28,1.11-0.28,2.22-0.27,3.34c0.03,2.71-0.08,5.4,0.32,8.12
			c0.46,3.06,0.55,6.19,1.04,9.26c0.17,1.1,0.31,2.21,0.54,3.3c0.65,3.13,1.32,6.25,2.62,9.19c0.81,1.84,1.88,3.52,3.41,4.87
			c0.54,0.47,1.04,0.99,1.52,1.53c1,1.13,1.93,2.33,2.98,3.41c0.94,0.97,2.01,1.82,3.02,2.73c1.8,1.61,3.94,2.72,6.01,3.92
			c1.28,0.74,2.27,1.75,3.27,2.78c0.61,0.63,0.78,1.38,0.64,2.21c-0.25,1.49-0.54,2.98-0.75,4.48c-0.28,1.97-0.49,3.95-0.73,5.93
			c-0.05,0.4-0.03,0.8-0.09,1.19c-0.68,3.86-0.34,7.62,0.95,11.31c0.32,0.9,0.56,1.83,0.87,2.74c0.36,1.06,0.73,2.11,1.14,3.15
			c0.35,0.9,0.85,1.69,1.74,2.22c0.54,0.32,0.97,0.83,1.46,1.24c1.96,1.64,3.89,3.31,5.91,4.88c1.13,0.89,2.46,1.47,3.88,1.82
			c1.94,0.48,3.88,0.83,5.87,1.09c1.93,0.25,3.76,0.3,5.68-0.05c2.76-0.5,5.47-1.17,8.09-2.12c1.26-0.46,2.53-1.05,3.62-1.82
			c2.02-1.42,3.95-2.97,5.86-4.54c0.86-0.71,1.6-1.56,2.35-2.38c0.65-0.7,1.26-1.44,1.88-2.17c0.77-0.92,1.56-1.82,2.26-2.79
			c0.84-1.17,1.57-2.41,2.37-3.6c1.79-2.66,2.63-5.61,2.79-8.78c0.24-4.64-0.49-9.25-0.59-13.88c-0.01-0.24-0.1-0.47-0.13-0.71
			c-0.09-0.71-0.17-1.42-0.25-2.13c-0.12-1.03-0.25-2.06-0.35-3.08c-0.21-2.06-0.49-4.12-0.58-6.19c-0.11-2.56-0.06-5.12-0.05-7.68
			c0-0.56,0.04-1.12,0.16-1.66c0.75-3.38,2.03-6.56,3.75-9.56c1.21-2.11,2.89-3.82,4.74-5.36c0.59-0.49,1.25-0.45,1.65,0.21
			c0.74,1.24,1.92,1.86,3.07,2.6c1.66,1.07,3.4,1.28,5.28,0.97c0.39-0.07,0.78-0.21,1.17-0.23c1.6-0.06,2.67-0.98,3.53-2.19
			c0.46-0.65,0.86-1.35,1.23-2.05C114.73,36.01,114.89,32.93,114.35,29.8z M45.82,67.55c0.49-0.71,1.01-1.4,1.85-1.72
			c0.11-0.04,0.28,0.06,0.41,0.13c0.05,0.03,0.07,0.12,0.11,0.19c0,0.08,0.02,0.17-0.02,0.23c-0.42,0.77-0.96,1.43-1.84,1.68
			c-0.13,0.04-0.33-0.02-0.42-0.1C45.82,67.87,45.77,67.63,45.82,67.55z M42.65,66.78c0.36,0.04,0.82,0.46,0.73,0.75
			c-0.13,0.42-0.36,0.81-0.57,1.21c-0.03,0.05-0.13,0.06-0.2,0.08c-0.14-0.06-0.34-0.07-0.4-0.18c-0.18-0.33-0.37-0.67-0.45-1.03
			C41.68,67.19,42.21,66.72,42.65,66.78z M32.95,67.52c-1.39,0.09-2.58-0.43-3.66-1.25c-0.04-0.03-0.03-0.16-0.01-0.23
			c0.02-0.07,0.1-0.12,0.14-0.16c0.1-0.03,0.18-0.08,0.24-0.06c1.05,0.32,2.1,0.64,3.14,0.98c0.12,0.04,0.25,0.21,0.29,0.34
			C33.11,67.26,33.01,67.52,32.95,67.52z M38.33,67.85c-0.02-0.9,1-1.46,1.91-1.02c0.12,0.06,0.26,0.28,0.23,0.37
			c-0.15,0.44-0.31,0.9-0.57,1.27c-0.15,0.22-0.5,0.39-0.78,0.42C38.74,68.91,38.34,68.33,38.33,67.85z M109.07,37.02
			c-0.96,0.88-2.17,1.35-3.42,1.6c-1.15,0.23-2.22-0.18-3.05-0.98c-1.66-1.61-2.27-3.6-1.88-5.87c0.09-0.53,0.35-1.06,0.65-1.52
			c1.17-1.81,2.51-2.62,4.67-2.91c0.31-0.04,0.65-0.06,0.94,0.03c1.47,0.46,2.78,1.21,3.71,2.46c0.27,0.36,0.43,0.84,0.53,1.3
			c0.1,0.46,0.07,0.95,0.12,1.75C111.63,34.58,110.38,35.83,109.07,37.02z" fill="#bf0012 />
	</g>
</g>
</svg>
