<svg xmlns="http://www.w3.org/2000/svg" width="92.44" height="122.59" viewBox="0 0 92.44 122.59">
  <defs>
    <style>
      .cls-1 {
        fill-rule: evenodd;
      }
    </style>
  </defs>
  <path id="_person-team_" data-name=" person-team " class="cls-1" d="M3057.13,2465.5a13.846,13.846,0,0,0-6.45-6.9,1.775,1.775,0,0,0-2.61.58c-1.13,1.67-2.2,3.37-3.3,5.06a6.65,6.65,0,0,1-.74.94,0.484,0.484,0,0,1-.44-0.09,3.3,3.3,0,0,1,0-3.92c1.1-1.72.74-2.3-1.25-2.35a17.552,17.552,0,0,0-2.4.13,0.854,0.854,0,0,0-.61,1.15,1.346,1.346,0,0,0,.25.54,1.558,1.558,0,0,1,.21,2.17,11.211,11.211,0,0,0-.47,1.11,6.924,6.924,0,0,1-.42.68,1.882,1.882,0,0,1-.66-0.57c-0.85-2.38-2.6-4.29-3.37-6.71a1.125,1.125,0,0,0-.94-0.57c-1.24.35-2.45,0.84-3.67,1.27-2.01,1.97-4.22,3.76-5.65,6.24a20.041,20.041,0,0,0-2.87,10.03q-0.06,8.76-.07,17.51c0,1.2.06,2.41,0.09,3.62a3.5,3.5,0,0,0,1.28,2.63,2.552,2.552,0,0,0,4.17-1.09,6.459,6.459,0,0,0,.33-2.97,39.317,39.317,0,0,1-.26-4.21c-0.04-2.21,0-4.42-.01-6.64a39.767,39.767,0,0,1,.98-8.35,28.885,28.885,0,0,1,1.06-3.77,4.73,4.73,0,0,1,.97-1.45c0.27-.32.34-0.22,0.61,1.68s0.59,3.77.83,5.67a81.857,81.857,0,0,1,1.01,10.49c-0.01,1.51.05,3.02,0.03,4.53-0.1,6.94.22,13.87,0.55,20.81,0.02,0.5.03,1,.1,1.5a88.577,88.577,0,0,1,.99,12.61c-0.01,1.1.01,2.21,0.11,3.31a4.9,4.9,0,0,0,.51,1.71,2.812,2.812,0,0,0,3.37,1.31,2.717,2.717,0,0,0,2.09-2.31c0.09-.9.05-1.81,0.05-2.71l-0.09-19.62a24.055,24.055,0,0,1,.08-2.41,1.061,1.061,0,0,1,.47-0.7,3.812,3.812,0,0,1,2.3-.58,0.8,0.8,0,0,1,.83.7c0.06,0.91.05,1.81,0.08,2.71,0.13,3.82-.35,7.65.39,11.44a8.441,8.441,0,0,1-.1,1.8c-0.08,1.91-.19,3.82-0.2,5.72a6.152,6.152,0,0,0,2.66,4.84,2.655,2.655,0,0,0,2.86.28,2.5,2.5,0,0,0,1.63-2.34,5.985,5.985,0,0,0-.13-1.8,18.472,18.472,0,0,1-.51-5.08c-0.1-2,.08-4.02-0.51-5.99a7.7,7.7,0,0,1-.1-2.1v-19.92h-0.01v-19.31a13.779,13.779,0,0,1,.08-2.41,15.2,15.2,0,0,1,.77-2.24c0.98,0.27.92,1.19,1.17,1.9a17.471,17.471,0,0,1,1.43,6.13c-0.05,4.22.26,8.45-.23,12.66-0.19,1.6-.11,3.22-0.14,4.83a4.491,4.491,0,0,0,.05.9,2.782,2.782,0,0,0,2.84,2.58,2.723,2.723,0,0,0,2.95-2.44,13.314,13.314,0,0,0,.1-2.1c0.03-7.05,0-14.09.11-21.13A20.543,20.543,0,0,0,3057.13,2465.5Zm28.09,16.05a14.139,14.139,0,0,0-2.08-7.14,7.389,7.389,0,0,0-2.97-2.92c-1.47-.8-1.86-0.77-2.74.51-0.68.99-1.34,2-2.04,2.98a0.559,0.559,0,0,1-.51.1,0.645,0.645,0,0,1-.37-0.42,1.706,1.706,0,0,1,.02-0.87c0.21-.57.5-1.1,0.74-1.65a0.9,0.9,0,0,0-.55-0.95,2.891,2.891,0,0,0-.87-0.15c-1.45.05-1.75,0.51-1.45,2.05a5.655,5.655,0,0,1,.11,1.48,3.292,3.292,0,0,1-.39.94,2.467,2.467,0,0,1-.65-0.59c-0.79-1.51-1.52-3.05-2.35-4.54a1.15,1.15,0,0,0-.99-0.46,6.631,6.631,0,0,0-2.91,1.46,13.92,13.92,0,0,0-4.8,10.94c0.03,3.42-.02,6.84-0.02,10.26a20.4,20.4,0,0,0,.07,2.71,4.126,4.126,0,0,0,.68,1.62,1.587,1.587,0,0,0,1.89.54,1.609,1.609,0,0,0,1.05-1.35c0.05-.6.06-1.21,0.06-1.81-0.02-2.11.02-4.22-.09-6.33a31.559,31.559,0,0,1,.7-6.58,11.982,11.982,0,0,1,.91-2.53,1.229,1.229,0,0,1,.47-0.33,1.417,1.417,0,0,1,.28.44,87.7,87.7,0,0,1,1.33,14.38,124.5,124.5,0,0,0,.44,14.45,75.461,75.461,0,0,1,.69,10.52,4.162,4.162,0,0,0,.05.6,1.877,1.877,0,0,0,1.58,1.59,1.946,1.946,0,0,0,2.14-1.29,5.684,5.684,0,0,0,.24-2.97c-0.56-4.31-.14-8.64-0.22-12.95-0.02-1.09.61-1.56,1.79-1.52a0.8,0.8,0,0,1,.85.69c0.08,0.8.06,1.61,0.07,2.41,0.02,3.82.07,7.64,0.04,11.46a4.218,4.218,0,0,0,1.19,2.99,2.067,2.067,0,0,0,2.47.42,2.115,2.115,0,0,0,.98-2.03c-0.14-1.2-.27-2.39-0.38-3.58-0.08-1.01-.1-2.01-0.17-3.01-0.1-1.3-.31-2.59-0.32-3.89-0.04-4.02-.02-8.04-0.02-12.06h-0.01c0-4.02-.03-8.04.02-12.07,0.02-1.15-.4-2.43.52-3.44,0.39-.43.94,0.66,1.52,3.28a9.7,9.7,0,0,1,.25,2.08c-0.05,3.61-.15,7.23-0.21,10.84a4.572,4.572,0,0,0,.19,1.47,1.824,1.824,0,0,0,1.78,1.34,2.068,2.068,0,0,0,1.75-1.46,11.2,11.2,0,0,0,.17-2.09C3085.18,2490.6,3085.12,2486.07,3085.22,2481.55Zm-64.19,8.54a16.123,16.123,0,0,1-.25-5.09,14.655,14.655,0,0,0-2.66-8.48,11.283,11.283,0,0,0-2.67-2.8c-1.43-1.07-2.06-.86-3.19.61-0.31.4-.62,0.8-0.91,1.21a3.5,3.5,0,0,1-2.24,1.41,5.208,5.208,0,0,1-4.99-1.41c-0.49-.5-0.89-1.09-1.41-1.57a1.846,1.846,0,0,0-1.04-.52,6.373,6.373,0,0,0-4.69,1.55,14.274,14.274,0,0,0-4.13,9.74c-0.1,1.8-.02,3.62-0.02,5.43h-0.04c0,1.8.06,3.61-.01,5.42a10.114,10.114,0,0,0,.76,3.5,2.087,2.087,0,0,0,1.76,1.45,1.24,1.24,0,0,0,1.57-1.01c0.09-1.61.21-3.22,0.14-4.82a65.969,65.969,0,0,1,.74-10.79,2.643,2.643,0,0,1,.32-0.83,0.792,0.792,0,0,1,1.26-.18,6.478,6.478,0,0,1,1.31,3.31c0.22,1.69.38,3.38,0.55,5.08,0.12,1.2.51,1.51,1.78,1.38a2.9,2.9,0,0,0,.6-0.07,22.127,22.127,0,0,1,6.28-.52c0.7-.01,1.4.06,2.11,0.06a1.31,1.31,0,0,0,1.56-1.07,10.314,10.314,0,0,0,.44-1.74c0.2-1.18.31-2.38,0.53-3.57a3.637,3.637,0,0,1,.55-1.32c0.2-.32.79,0.23,1.02,1.21a14.842,14.842,0,0,1,.4,2.96c0.05,2.72.01,5.43,0.02,8.14a17.969,17.969,0,0,0,.03,1.8c0.18,1.59.84,2.08,2.41,1.83a8.6,8.6,0,0,0,.87-0.24,1.111,1.111,0,0,0,.89-1.06C3020.91,2496.1,3020.51,2493.08,3021.03,2490.09Zm-2.16,21.37c-0.26-.76-0.57-1.5-0.89-2.24a54.42,54.42,0,0,1-4.01-13.2,0.834,0.834,0,0,0-.7-0.83,33.153,33.153,0,0,0-6.6-.44c-1.49.14-2.98,0.31-4.48,0.46a0.956,0.956,0,0,0-.95.95c-0.02.2-.03,0.4-0.07,0.6-0.74,3.73-1.16,7.52-2.31,11.17a14.65,14.65,0,0,1-2.11,4.95,1.317,1.317,0,0,0,1.09,2.14c0.9,0.03,1.81-.06,2.71-0.08a1.052,1.052,0,0,1,1.22,1.02q0.3,3.75.56,7.5c0.08,1.21.02,2.42,0.17,3.61a2.141,2.141,0,0,0,3.46,1.4,1.833,1.833,0,0,0,.81-1.54c0.02-1.9.01-3.81,0.01-5.72h-0.06c0-1.71-.01-3.42,0-5.13a2.392,2.392,0,0,1,.09-0.89,1.025,1.025,0,0,1,.54-0.62c1.72-.33,2.36-0.18,2.34,1.57-0.04,2.61.08,5.23,0.01,7.84a4.815,4.815,0,0,0,1.58,3.75,2.242,2.242,0,0,0,2.5.44,2.124,2.124,0,0,0,1.2-2.5,15.031,15.031,0,0,1-.45-4.17,20.262,20.262,0,0,0-.43-4.78,6.707,6.707,0,0,1-.03-2.1,0.784,0.784,0,0,1,.8-0.74c0.8-.03,1.6.04,2.41,0.02C3018.75,2513.87,3019.37,2512.93,3018.87,2511.46Zm24.49-61.76a4.094,4.094,0,0,1-.77,1.25,0.968,0.968,0,0,1-.81.14,0.428,0.428,0,0,1-.25-0.68c0.3-.63.56-1.28,0.9-1.89a1.419,1.419,0,0,0-.33-2.1,1.023,1.023,0,0,1-.3-1.33,2.378,2.378,0,0,0-.28-2.5,3.567,3.567,0,0,1-.12-3.69c0.22-.44.48-0.87,0.72-1.31,0.21-.38.41-0.76,0.61-1.15a7.03,7.03,0,0,1,.87,1.2,6.651,6.651,0,0,1,.52,1.99c0.09,1.09.03,2.2,0.03,3.29A15.3,15.3,0,0,1,3043.36,2449.7Zm5.22-8.37a2.528,2.528,0,0,1-1.38-2.41,9.108,9.108,0,0,0-.34-2.37c-0.71-2.64-2.55-4.51-5.69-4.25a5.2,5.2,0,0,0-4.97,2.77,31.341,31.341,0,0,0-1.89,4.07c-0.45,1.08-.44,2.43-1.88,2.83-1.94,1.79-1.55,3.05-.21,4.66a1.219,1.219,0,0,0,.46.39,2.947,2.947,0,0,1,1.75,2.26,12.466,12.466,0,0,0,3,5.15,5.7,5.7,0,0,0,3.13,1.66c2.23,0.38,3.72-.16,4.8-2.1a13.89,13.89,0,0,0,1.13-2.77c0.29-.96.37-1.97,0.64-2.93a3.5,3.5,0,0,1,.74-1.24,8.9,8.9,0,0,1,.96-0.72C3050.62,2444.8,3050.57,2442.56,3048.58,2441.33Zm-39.59,25.29a3.973,3.973,0,0,1-.85,1.16,0.354,0.354,0,0,1-.29.01,0.42,0.42,0,0,1-.22-0.18,13.674,13.674,0,0,1,.6-1.66,1.552,1.552,0,0,0-.09-1.68,1.353,1.353,0,0,1-.3-0.81,4.648,4.648,0,0,0-.44-2.58,3.289,3.289,0,0,1,.7-3.36,0.675,0.675,0,0,1,.47-0.27,0.556,0.556,0,0,1,.46.28,10.129,10.129,0,0,1,.57,1.98,16.356,16.356,0,0,1,.02,2.23A10.76,10.76,0,0,1,3008.99,2466.62Zm7.14,0a36.847,36.847,0,0,0-5.08-11.16,4.181,4.181,0,0,0-4.44-1.82,18.136,18.136,0,0,0-3.43,1.06,5.264,5.264,0,0,0-1.71,1.17,13.228,13.228,0,0,0-3.74,9.24c-0.11,2.8.35,3.21,3.25,3.5,0.2,0.02.4,0.05,0.6,0.05a3.521,3.521,0,0,1,2.89,1.33,4.836,4.836,0,0,0,1.73,1.14,3.138,3.138,0,0,0,4.02-.97,2.842,2.842,0,0,0,.6-1.03c0.2-.81.61-0.88,1.31-0.62a4.541,4.541,0,0,0,1.14.16c0.55-.04,1.05-0.04,1.55-0.11A1.458,1.458,0,0,0,3016.13,2466.62Zm57.73-.56a0.358,0.358,0,0,1-.26-0.1,0.324,0.324,0,0,1-.13-0.21,1.522,1.522,0,0,1,.95-1.08,0.208,0.208,0,0,1,.21.06,1.714,1.714,0,0,1,.17.43C3074.52,2465.43,3074.2,2465.75,3073.86,2466.06Zm0.89-12.29a3.868,3.868,0,0,0-4.57,1.38,10.228,10.228,0,0,0,.39,12.85,3.323,3.323,0,0,0,5.94-1.06,6.224,6.224,0,0,0,.27-1.77c0.04-1.21.01-2.42,0.01-4.19,0.04-.64.07-1.85,0.19-3.05A3.867,3.867,0,0,0,3074.75,2453.77Zm-33.71-38.12a7.987,7.987,0,0,0-1.34-4.23,1.642,1.642,0,0,0-2.6-.15,4.527,4.527,0,0,0-1.04,1.79,22.585,22.585,0,0,0-.04,9.51,4.548,4.548,0,0,0,1.21,2.02,2.049,2.049,0,0,0,3.28-.61,6.745,6.745,0,0,0,.47-2.03c0.08-.99.03-2,0.03-3h0.05C3041.06,2417.85,3041.12,2416.75,3041.04,2415.65Zm-11.14,11.97a9.727,9.727,0,0,0-1.62-2.14c-1.42-1.39-2.88-2.76-4.43-4.01a6.49,6.49,0,0,0-2.4-1.1,1.788,1.788,0,0,0-2.11,1.62,2.725,2.725,0,0,0,.63,2.23c1.37,1.58,2.73,3.17,4.14,4.72a7.608,7.608,0,0,0,3.01,1.9,3.741,3.741,0,0,0,.76.15C3029.5,2430.83,3030.64,2428.88,3029.9,2427.62Zm37.31,9.03a7.552,7.552,0,0,0-2.27-.6,45.314,45.314,0,0,0-5.08.04,6.8,6.8,0,0,0-2.25.68,1.457,1.457,0,0,0-.52,2.07,2.914,2.914,0,0,0,1.83,1.43c1.26,0.26,2.53.43,3.8,0.64,0.01-.06.02-0.12,0.03-0.19a15.747,15.747,0,0,0,2.38-.02,8.518,8.518,0,0,0,2.24-.73,1.662,1.662,0,0,0,.97-1.71A1.681,1.681,0,0,0,3067.21,2436.65Zm-41.99.29c-0.14-.14-0.3-0.26-0.45-0.39-1.66-1.35-3.7-1.41-5.68-1.62a2.572,2.572,0,0,0-1.37.54,1.877,1.877,0,0,0-.34,2.87,3.949,3.949,0,0,0,1.49.98c1.34,0.4,2.71.67,3.82,0.93,0.68-.04,1.09-0.02,1.48-0.09a2.069,2.069,0,0,0,1.55-1.3A1.885,1.885,0,0,0,3025.22,2436.94Zm31.22-15.25c-2.64.83-4.06,2.82-4.94,5.29a1.537,1.537,0,0,0,1.26,1.76,2.148,2.148,0,0,0,1.93-.6c1.08-1.05,2.18-2.08,3.2-3.19a5.818,5.818,0,0,0,.72-1.28A1.676,1.676,0,0,0,3056.44,2421.69Z" transform="translate(-2992.78 -2410.69)" fill="#ffffff"/>
</svg>
