<svg width="17" height="16" viewBox="0 0 17 16" fill="none" xmlns="http://www.w3.org/2000/svg">
<path d="M14.1429 10.5056C14.1429 10.375 14.0525 10.2645 13.9319 10.2143C13.8114 10.1641 13.6708 10.2042 13.5804 10.2946C13.4196 10.4453 13.2388 10.5759 13.0379 10.6663C12.9275 10.7266 12.8571 10.8371 12.8571 10.9576V13.1071C12.8571 13.9911 12.1339 14.7143 11.25 14.7143H2.89286C2.00893 14.7143 1.28571 13.9911 1.28571 13.1071V4.75C1.28571 3.86607 2.00893 3.14286 2.89286 3.14286H4.01786C4.07813 3.14286 4.12835 3.12277 4.17857 3.10268C4.56027 2.87165 5.01228 2.67076 5.51451 2.5C5.66518 2.46987 5.77567 2.33929 5.77567 2.17857C5.77567 1.99777 5.625 1.85714 5.45424 1.85714H2.89286C1.29576 1.85714 0 3.1529 0 4.75V13.1071C0 14.7042 1.29576 16 2.89286 16H11.25C12.8471 16 14.1429 14.7042 14.1429 13.1071V10.5056ZM16.5234 5.52344C16.7746 5.27232 16.7746 4.87054 16.5234 4.61942L12.6663 0.762276C12.5458 0.641741 12.385 0.571427 12.2143 0.571427C12.1339 0.571427 12.0435 0.591517 11.9632 0.621651C11.7321 0.722098 11.5714 0.953124 11.5714 1.21429V3.14286H9.96429C3.41518 3.14286 2.57143 6.23661 2.57143 8.92857C2.57143 10.9375 4.16853 13.1975 4.23884 13.298C4.29911 13.3783 4.39955 13.4286 4.5 13.4286C4.54018 13.4286 4.58036 13.4185 4.62054 13.4085C4.75112 13.3482 4.84152 13.2076 4.82143 13.067C4.51004 10.7567 4.75112 9.25 5.56473 8.31585C6.34821 7.42187 7.75446 7 9.96429 7H11.5714V8.92857C11.5714 9.18973 11.7321 9.42076 11.9632 9.52121C12.0435 9.55134 12.1339 9.57143 12.2143 9.57143C12.385 9.57143 12.5458 9.51116 12.6663 9.38058L16.5234 5.52344Z" fill="#20CD84"/>
</svg>
